<?xml version="1.0" encoding="utf-8" standalone="no"?>
<!DOCTYPE svg PUBLIC "-//W3C//DTD SVG 1.1//EN"
  "http://www.w3.org/Graphics/SVG/1.1/DTD/svg11.dtd">
<svg xmlns:xlink="http://www.w3.org/1999/xlink" width="655.76875pt" height="447.954375pt" viewBox="0 0 655.76875 447.954375" xmlns="http://www.w3.org/2000/svg" version="1.1">
 <metadata>
  <rdf:RDF xmlns:dc="http://purl.org/dc/elements/1.1/" xmlns:cc="http://creativecommons.org/ns#" xmlns:rdf="http://www.w3.org/1999/02/22-rdf-syntax-ns#">
   <cc:Work>
    <dc:type rdf:resource="http://purl.org/dc/dcmitype/StillImage"/>
    <dc:format>image/svg+xml</dc:format>
    <dc:creator>
     <cc:Agent>
      <dc:title>Matplotlib v3.10.6, https://matplotlib.org/</dc:title>
     </cc:Agent>
    </dc:creator>
   </cc:Work>
  </rdf:RDF>
 </metadata>
 <defs>
  <style type="text/css">*{stroke-linejoin: round; stroke-linecap: butt}</style>
 </defs>
 <g id="figure_1">
  <g id="patch_1">
   <path d="M 0 447.954375 
L 655.76875 447.954375 
L 655.76875 0 
L 0 0 
z
" style="fill: #ffffff"/>
  </g>
  <g id="axes_1">
   <g id="patch_2">
    <path d="M 90.56875 410.398125 
L 648.56875 410.398125 
L 648.56875 22.318125 
L 90.56875 22.318125 
z
" style="fill: #ffffff"/>
   </g>
   <g id="patch_3">
    <path d="M 90.56875 39.958125 
L 116.572234 39.958125 
L 116.572234 62.008125 
L 90.56875 62.008125 
z
" clip-path="url(#p4a058b5574)" style="fill: #1f77b4"/>
   </g>
   <g id="patch_4">
    <path d="M 90.56875 76.708125 
L 121.29668 76.708125 
L 121.29668 98.758125 
L 90.56875 98.758125 
z
" clip-path="url(#p4a058b5574)" style="fill: #1f77b4"/>
   </g>
   <g id="patch_5">
    <path d="M 90.56875 113.458125 
L 269.056277 113.458125 
L 269.056277 135.508125 
L 90.56875 135.508125 
z
" clip-path="url(#p4a058b5574)" style="fill: #1f77b4"/>
   </g>
   <g id="patch_6">
    <path d="M 90.56875 150.208125 
L 468.108771 150.208125 
L 468.108771 172.258125 
L 90.56875 172.258125 
z
" clip-path="url(#p4a058b5574)" style="fill: #1f77b4"/>
   </g>
   <g id="patch_7">
    <path d="M 90.56875 186.958125 
L 536.329283 186.958125 
L 536.329283 209.008125 
L 90.56875 209.008125 
z
" clip-path="url(#p4a058b5574)" style="fill: #1f77b4"/>
   </g>
   <g id="patch_8">
    <path d="M 90.56875 223.708125 
L 536.96875 223.708125 
L 536.96875 245.758125 
L 90.56875 245.758125 
z
" clip-path="url(#p4a058b5574)" style="fill: #1f77b4"/>
   </g>
   <g id="patch_9">
    <path d="M 90.56875 260.458125 
L 90.56875 260.458125 
L 90.56875 282.508125 
L 90.56875 282.508125 
z
" clip-path="url(#p4a058b5574)" style="fill: #1f77b4"/>
   </g>
   <g id="patch_10">
    <path d="M 90.56875 297.208125 
L 90.56875 297.208125 
L 90.56875 319.258125 
L 90.56875 319.258125 
z
" clip-path="url(#p4a058b5574)" style="fill: #1f77b4"/>
   </g>
   <g id="patch_11">
    <path d="M 90.56875 333.958125 
L 90.56875 333.958125 
L 90.56875 356.008125 
L 90.56875 356.008125 
z
" clip-path="url(#p4a058b5574)" style="fill: #1f77b4"/>
   </g>
   <g id="patch_12">
    <path d="M 90.56875 370.708125 
L 90.56875 370.708125 
L 90.56875 392.758125 
L 90.56875 392.758125 
z
" clip-path="url(#p4a058b5574)" style="fill: #1f77b4"/>
   </g>
   <g id="matplotlib.axis_1">
    <g id="xtick_1">
     <g id="line2d_1">
      <defs>
       <path id="m7f02fceb46" d="M 0 0 
L 0 3.5 
" style="stroke: #000000; stroke-width: 0.8"/>
      </defs>
      <g>
       <use xlink:href="#m7f02fceb46" x="90.56875" y="410.398125" style="stroke: #000000; stroke-width: 0.8"/>
      </g>
     </g>
     <g id="text_1">
      <!-- 0 -->
      <g transform="translate(87.3875 424.996562) scale(0.1 -0.1)">
       <defs>
        <path id="DejaVuSans-30" d="M 2034 4250 
Q 1547 4250 1301 3770 
Q 1056 3291 1056 2328 
Q 1056 1369 1301 889 
Q 1547 409 2034 409 
Q 2525 409 2770 889 
Q 3016 1369 3016 2328 
Q 3016 3291 2770 3770 
Q 2525 4250 2034 4250 
z
M 2034 4750 
Q 2819 4750 3233 4129 
Q 3647 3509 3647 2328 
Q 3647 1150 3233 529 
Q 2819 -91 2034 -91 
Q 1250 -91 836 529 
Q 422 1150 422 2328 
Q 422 3509 836 4129 
Q 1250 4750 2034 4750 
z
" transform="scale(0.015625)"/>
       </defs>
       <use xlink:href="#DejaVuSans-30"/>
      </g>
     </g>
    </g>
    <g id="xtick_2">
     <g id="line2d_2">
      <g>
       <use xlink:href="#m7f02fceb46" x="166.695819" y="410.398125" style="stroke: #000000; stroke-width: 0.8"/>
      </g>
     </g>
     <g id="text_2">
      <!-- 500 -->
      <g transform="translate(157.152069 424.996562) scale(0.1 -0.1)">
       <defs>
        <path id="DejaVuSans-35" d="M 691 4666 
L 3169 4666 
L 3169 4134 
L 1269 4134 
L 1269 2991 
Q 1406 3038 1543 3061 
Q 1681 3084 1819 3084 
Q 2600 3084 3056 2656 
Q 3513 2228 3513 1497 
Q 3513 744 3044 326 
Q 2575 -91 1722 -91 
Q 1428 -91 1123 -41 
Q 819 9 494 109 
L 494 744 
Q 775 591 1075 516 
Q 1375 441 1709 441 
Q 2250 441 2565 725 
Q 2881 1009 2881 1497 
Q 2881 1984 2565 2268 
Q 2250 2553 1709 2553 
Q 1456 2553 1204 2497 
Q 953 2441 691 2322 
L 691 4666 
z
" transform="scale(0.015625)"/>
       </defs>
       <use xlink:href="#DejaVuSans-35"/>
       <use xlink:href="#DejaVuSans-30" transform="translate(63.623047 0)"/>
       <use xlink:href="#DejaVuSans-30" transform="translate(127.246094 0)"/>
      </g>
     </g>
    </g>
    <g id="xtick_3">
     <g id="line2d_3">
      <g>
       <use xlink:href="#m7f02fceb46" x="242.822889" y="410.398125" style="stroke: #000000; stroke-width: 0.8"/>
      </g>
     </g>
     <g id="text_3">
      <!-- 1000 -->
      <g transform="translate(230.097889 424.996562) scale(0.1 -0.1)">
       <defs>
        <path id="DejaVuSans-31" d="M 794 531 
L 1825 531 
L 1825 4091 
L 703 3866 
L 703 4441 
L 1819 4666 
L 2450 4666 
L 2450 531 
L 3481 531 
L 3481 0 
L 794 0 
L 794 531 
z
" transform="scale(0.015625)"/>
       </defs>
       <use xlink:href="#DejaVuSans-31"/>
       <use xlink:href="#DejaVuSans-30" transform="translate(63.623047 0)"/>
       <use xlink:href="#DejaVuSans-30" transform="translate(127.246094 0)"/>
       <use xlink:href="#DejaVuSans-30" transform="translate(190.869141 0)"/>
      </g>
     </g>
    </g>
    <g id="xtick_4">
     <g id="line2d_4">
      <g>
       <use xlink:href="#m7f02fceb46" x="318.949958" y="410.398125" style="stroke: #000000; stroke-width: 0.8"/>
      </g>
     </g>
     <g id="text_4">
      <!-- 1500 -->
      <g transform="translate(306.224958 424.996562) scale(0.1 -0.1)">
       <use xlink:href="#DejaVuSans-31"/>
       <use xlink:href="#DejaVuSans-35" transform="translate(63.623047 0)"/>
       <use xlink:href="#DejaVuSans-30" transform="translate(127.246094 0)"/>
       <use xlink:href="#DejaVuSans-30" transform="translate(190.869141 0)"/>
      </g>
     </g>
    </g>
    <g id="xtick_5">
     <g id="line2d_5">
      <g>
       <use xlink:href="#m7f02fceb46" x="395.077028" y="410.398125" style="stroke: #000000; stroke-width: 0.8"/>
      </g>
     </g>
     <g id="text_5">
      <!-- 2000 -->
      <g transform="translate(382.352028 424.996562) scale(0.1 -0.1)">
       <defs>
        <path id="DejaVuSans-32" d="M 1228 531 
L 3431 531 
L 3431 0 
L 469 0 
L 469 531 
Q 828 903 1448 1529 
Q 2069 2156 2228 2338 
Q 2531 2678 2651 2914 
Q 2772 3150 2772 3378 
Q 2772 3750 2511 3984 
Q 2250 4219 1831 4219 
Q 1534 4219 1204 4116 
Q 875 4013 500 3803 
L 500 4441 
Q 881 4594 1212 4672 
Q 1544 4750 1819 4750 
Q 2544 4750 2975 4387 
Q 3406 4025 3406 3419 
Q 3406 3131 3298 2873 
Q 3191 2616 2906 2266 
Q 2828 2175 2409 1742 
Q 1991 1309 1228 531 
z
" transform="scale(0.015625)"/>
       </defs>
       <use xlink:href="#DejaVuSans-32"/>
       <use xlink:href="#DejaVuSans-30" transform="translate(63.623047 0)"/>
       <use xlink:href="#DejaVuSans-30" transform="translate(127.246094 0)"/>
       <use xlink:href="#DejaVuSans-30" transform="translate(190.869141 0)"/>
      </g>
     </g>
    </g>
    <g id="xtick_6">
     <g id="line2d_6">
      <g>
       <use xlink:href="#m7f02fceb46" x="471.204097" y="410.398125" style="stroke: #000000; stroke-width: 0.8"/>
      </g>
     </g>
     <g id="text_6">
      <!-- 2500 -->
      <g transform="translate(458.479097 424.996562) scale(0.1 -0.1)">
       <use xlink:href="#DejaVuSans-32"/>
       <use xlink:href="#DejaVuSans-35" transform="translate(63.623047 0)"/>
       <use xlink:href="#DejaVuSans-30" transform="translate(127.246094 0)"/>
       <use xlink:href="#DejaVuSans-30" transform="translate(190.869141 0)"/>
      </g>
     </g>
    </g>
    <g id="xtick_7">
     <g id="line2d_7">
      <g>
       <use xlink:href="#m7f02fceb46" x="547.331167" y="410.398125" style="stroke: #000000; stroke-width: 0.8"/>
      </g>
     </g>
     <g id="text_7">
      <!-- 3000 -->
      <g transform="translate(534.606167 424.996562) scale(0.1 -0.1)">
       <defs>
        <path id="DejaVuSans-33" d="M 2597 2516 
Q 3050 2419 3304 2112 
Q 3559 1806 3559 1356 
Q 3559 666 3084 287 
Q 2609 -91 1734 -91 
Q 1441 -91 1130 -33 
Q 819 25 488 141 
L 488 750 
Q 750 597 1062 519 
Q 1375 441 1716 441 
Q 2309 441 2620 675 
Q 2931 909 2931 1356 
Q 2931 1769 2642 2001 
Q 2353 2234 1838 2234 
L 1294 2234 
L 1294 2753 
L 1863 2753 
Q 2328 2753 2575 2939 
Q 2822 3125 2822 3475 
Q 2822 3834 2567 4026 
Q 2313 4219 1838 4219 
Q 1578 4219 1281 4162 
Q 984 4106 628 3988 
L 628 4550 
Q 988 4650 1302 4700 
Q 1616 4750 1894 4750 
Q 2613 4750 3031 4423 
Q 3450 4097 3450 3541 
Q 3450 3153 3228 2886 
Q 3006 2619 2597 2516 
z
" transform="scale(0.015625)"/>
       </defs>
       <use xlink:href="#DejaVuSans-33"/>
       <use xlink:href="#DejaVuSans-30" transform="translate(63.623047 0)"/>
       <use xlink:href="#DejaVuSans-30" transform="translate(127.246094 0)"/>
       <use xlink:href="#DejaVuSans-30" transform="translate(190.869141 0)"/>
      </g>
     </g>
    </g>
    <g id="xtick_8">
     <g id="line2d_8">
      <g>
       <use xlink:href="#m7f02fceb46" x="623.458236" y="410.398125" style="stroke: #000000; stroke-width: 0.8"/>
      </g>
     </g>
     <g id="text_8">
      <!-- 3500 -->
      <g transform="translate(610.733236 424.996562) scale(0.1 -0.1)">
       <use xlink:href="#DejaVuSans-33"/>
       <use xlink:href="#DejaVuSans-35" transform="translate(63.623047 0)"/>
       <use xlink:href="#DejaVuSans-30" transform="translate(127.246094 0)"/>
       <use xlink:href="#DejaVuSans-30" transform="translate(190.869141 0)"/>
      </g>
     </g>
    </g>
    <g id="text_9">
     <!-- ns/iter -->
     <g transform="translate(353.629688 438.674687) scale(0.1 -0.1)">
      <defs>
       <path id="DejaVuSans-6e" d="M 3513 2113 
L 3513 0 
L 2938 0 
L 2938 2094 
Q 2938 2591 2744 2837 
Q 2550 3084 2163 3084 
Q 1697 3084 1428 2787 
Q 1159 2491 1159 1978 
L 1159 0 
L 581 0 
L 581 3500 
L 1159 3500 
L 1159 2956 
Q 1366 3272 1645 3428 
Q 1925 3584 2291 3584 
Q 2894 3584 3203 3211 
Q 3513 2838 3513 2113 
z
" transform="scale(0.015625)"/>
       <path id="DejaVuSans-73" d="M 2834 3397 
L 2834 2853 
Q 2591 2978 2328 3040 
Q 2066 3103 1784 3103 
Q 1356 3103 1142 2972 
Q 928 2841 928 2578 
Q 928 2378 1081 2264 
Q 1234 2150 1697 2047 
L 1894 2003 
Q 2506 1872 2764 1633 
Q 3022 1394 3022 966 
Q 3022 478 2636 193 
Q 2250 -91 1575 -91 
Q 1294 -91 989 -36 
Q 684 19 347 128 
L 347 722 
Q 666 556 975 473 
Q 1284 391 1588 391 
Q 1994 391 2212 530 
Q 2431 669 2431 922 
Q 2431 1156 2273 1281 
Q 2116 1406 1581 1522 
L 1381 1569 
Q 847 1681 609 1914 
Q 372 2147 372 2553 
Q 372 3047 722 3315 
Q 1072 3584 1716 3584 
Q 2034 3584 2315 3537 
Q 2597 3491 2834 3397 
z
" transform="scale(0.015625)"/>
       <path id="DejaVuSans-2f" d="M 1625 4666 
L 2156 4666 
L 531 -594 
L 0 -594 
L 1625 4666 
z
" transform="scale(0.015625)"/>
       <path id="DejaVuSans-69" d="M 603 3500 
L 1178 3500 
L 1178 0 
L 603 0 
L 603 3500 
z
M 603 4863 
L 1178 4863 
L 1178 4134 
L 603 4134 
L 603 4863 
z
" transform="scale(0.015625)"/>
       <path id="DejaVuSans-74" d="M 1172 4494 
L 1172 3500 
L 2356 3500 
L 2356 3053 
L 1172 3053 
L 1172 1153 
Q 1172 725 1289 603 
Q 1406 481 1766 481 
L 2356 481 
L 2356 0 
L 1766 0 
Q 1100 0 847 248 
Q 594 497 594 1153 
L 594 3053 
L 172 3053 
L 172 3500 
L 594 3500 
L 594 4494 
L 1172 4494 
z
" transform="scale(0.015625)"/>
       <path id="DejaVuSans-65" d="M 3597 1894 
L 3597 1613 
L 953 1613 
Q 991 1019 1311 708 
Q 1631 397 2203 397 
Q 2534 397 2845 478 
Q 3156 559 3463 722 
L 3463 178 
Q 3153 47 2828 -22 
Q 2503 -91 2169 -91 
Q 1331 -91 842 396 
Q 353 884 353 1716 
Q 353 2575 817 3079 
Q 1281 3584 2069 3584 
Q 2775 3584 3186 3129 
Q 3597 2675 3597 1894 
z
M 3022 2063 
Q 3016 2534 2758 2815 
Q 2500 3097 2075 3097 
Q 1594 3097 1305 2825 
Q 1016 2553 972 2059 
L 3022 2063 
z
" transform="scale(0.015625)"/>
       <path id="DejaVuSans-72" d="M 2631 2963 
Q 2534 3019 2420 3045 
Q 2306 3072 2169 3072 
Q 1681 3072 1420 2755 
Q 1159 2438 1159 1844 
L 1159 0 
L 581 0 
L 581 3500 
L 1159 3500 
L 1159 2956 
Q 1341 3275 1631 3429 
Q 1922 3584 2338 3584 
Q 2397 3584 2469 3576 
Q 2541 3569 2628 3553 
L 2631 2963 
z
" transform="scale(0.015625)"/>
      </defs>
      <use xlink:href="#DejaVuSans-6e"/>
      <use xlink:href="#DejaVuSans-73" transform="translate(63.378906 0)"/>
      <use xlink:href="#DejaVuSans-2f" transform="translate(115.478516 0)"/>
      <use xlink:href="#DejaVuSans-69" transform="translate(149.169922 0)"/>
      <use xlink:href="#DejaVuSans-74" transform="translate(176.953125 0)"/>
      <use xlink:href="#DejaVuSans-65" transform="translate(216.162109 0)"/>
      <use xlink:href="#DejaVuSans-72" transform="translate(277.685547 0)"/>
     </g>
    </g>
   </g>
   <g id="matplotlib.axis_2">
    <g id="ytick_1">
     <g id="line2d_9">
      <defs>
       <path id="m6b85edcb11" d="M 0 0 
L -3.5 0 
" style="stroke: #000000; stroke-width: 0.8"/>
      </defs>
      <g>
       <use xlink:href="#m6b85edcb11" x="90.56875" y="50.983125" style="stroke: #000000; stroke-width: 0.8"/>
      </g>
     </g>
     <g id="text_10">
      <!-- spdlog-rs -->
      <g style="fill: #ff0000" transform="translate(37.489063 44.344375) scale(0.1 -0.1)">
       <defs>
        <path id="DejaVuSans-70" d="M 1159 525 
L 1159 -1331 
L 581 -1331 
L 581 3500 
L 1159 3500 
L 1159 2969 
Q 1341 3281 1617 3432 
Q 1894 3584 2278 3584 
Q 2916 3584 3314 3078 
Q 3713 2572 3713 1747 
Q 3713 922 3314 415 
Q 2916 -91 2278 -91 
Q 1894 -91 1617 61 
Q 1341 213 1159 525 
z
M 3116 1747 
Q 3116 2381 2855 2742 
Q 2594 3103 2138 3103 
Q 1681 3103 1420 2742 
Q 1159 2381 1159 1747 
Q 1159 1113 1420 752 
Q 1681 391 2138 391 
Q 2594 391 2855 752 
Q 3116 1113 3116 1747 
z
" transform="scale(0.015625)"/>
        <path id="DejaVuSans-64" d="M 2906 2969 
L 2906 4863 
L 3481 4863 
L 3481 0 
L 2906 0 
L 2906 525 
Q 2725 213 2448 61 
Q 2172 -91 1784 -91 
Q 1150 -91 751 415 
Q 353 922 353 1747 
Q 353 2572 751 3078 
Q 1150 3584 1784 3584 
Q 2172 3584 2448 3432 
Q 2725 3281 2906 2969 
z
M 947 1747 
Q 947 1113 1208 752 
Q 1469 391 1925 391 
Q 2381 391 2643 752 
Q 2906 1113 2906 1747 
Q 2906 2381 2643 2742 
Q 2381 3103 1925 3103 
Q 1469 3103 1208 2742 
Q 947 2381 947 1747 
z
" transform="scale(0.015625)"/>
        <path id="DejaVuSans-6c" d="M 603 4863 
L 1178 4863 
L 1178 0 
L 603 0 
L 603 4863 
z
" transform="scale(0.015625)"/>
        <path id="DejaVuSans-6f" d="M 1959 3097 
Q 1497 3097 1228 2736 
Q 959 2375 959 1747 
Q 959 1119 1226 758 
Q 1494 397 1959 397 
Q 2419 397 2687 759 
Q 2956 1122 2956 1747 
Q 2956 2369 2687 2733 
Q 2419 3097 1959 3097 
z
M 1959 3584 
Q 2709 3584 3137 3096 
Q 3566 2609 3566 1747 
Q 3566 888 3137 398 
Q 2709 -91 1959 -91 
Q 1206 -91 779 398 
Q 353 888 353 1747 
Q 353 2609 779 3096 
Q 1206 3584 1959 3584 
z
" transform="scale(0.015625)"/>
        <path id="DejaVuSans-67" d="M 2906 1791 
Q 2906 2416 2648 2759 
Q 2391 3103 1925 3103 
Q 1463 3103 1205 2759 
Q 947 2416 947 1791 
Q 947 1169 1205 825 
Q 1463 481 1925 481 
Q 2391 481 2648 825 
Q 2906 1169 2906 1791 
z
M 3481 434 
Q 3481 -459 3084 -895 
Q 2688 -1331 1869 -1331 
Q 1566 -1331 1297 -1286 
Q 1028 -1241 775 -1147 
L 775 -588 
Q 1028 -725 1275 -790 
Q 1522 -856 1778 -856 
Q 2344 -856 2625 -561 
Q 2906 -266 2906 331 
L 2906 616 
Q 2728 306 2450 153 
Q 2172 0 1784 0 
Q 1141 0 747 490 
Q 353 981 353 1791 
Q 353 2603 747 3093 
Q 1141 3584 1784 3584 
Q 2172 3584 2450 3431 
Q 2728 3278 2906 2969 
L 2906 3500 
L 3481 3500 
L 3481 434 
z
" transform="scale(0.015625)"/>
        <path id="DejaVuSans-2d" d="M 313 2009 
L 1997 2009 
L 1997 1497 
L 313 1497 
L 313 2009 
z
" transform="scale(0.015625)"/>
       </defs>
       <use xlink:href="#DejaVuSans-73"/>
       <use xlink:href="#DejaVuSans-70" transform="translate(52.099609 0)"/>
       <use xlink:href="#DejaVuSans-64" transform="translate(115.576172 0)"/>
       <use xlink:href="#DejaVuSans-6c" transform="translate(179.052734 0)"/>
       <use xlink:href="#DejaVuSans-6f" transform="translate(206.835938 0)"/>
       <use xlink:href="#DejaVuSans-67" transform="translate(268.017578 0)"/>
       <use xlink:href="#DejaVuSans-2d" transform="translate(331.494141 0)"/>
       <use xlink:href="#DejaVuSans-72" transform="translate(367.578125 0)"/>
       <use xlink:href="#DejaVuSans-73" transform="translate(408.691406 0)"/>
      </g>
      <!-- 0.5.0 -->
      <g style="fill: #ff0000" transform="translate(58.125 55.542187) scale(0.1 -0.1)">
       <defs>
        <path id="DejaVuSans-2e" d="M 684 794 
L 1344 794 
L 1344 0 
L 684 0 
L 684 794 
z
" transform="scale(0.015625)"/>
       </defs>
       <use xlink:href="#DejaVuSans-30"/>
       <use xlink:href="#DejaVuSans-2e" transform="translate(63.623047 0)"/>
       <use xlink:href="#DejaVuSans-35" transform="translate(95.410156 0)"/>
       <use xlink:href="#DejaVuSans-2e" transform="translate(159.033203 0)"/>
       <use xlink:href="#DejaVuSans-30" transform="translate(190.820312 0)"/>
      </g>
      <!-- (flexible-string) -->
      <g style="fill: #ff0000" transform="translate(7.2 66.74) scale(0.1 -0.1)">
       <defs>
        <path id="DejaVuSans-28" d="M 1984 4856 
Q 1566 4138 1362 3434 
Q 1159 2731 1159 2009 
Q 1159 1288 1364 580 
Q 1569 -128 1984 -844 
L 1484 -844 
Q 1016 -109 783 600 
Q 550 1309 550 2009 
Q 550 2706 781 3412 
Q 1013 4119 1484 4856 
L 1984 4856 
z
" transform="scale(0.015625)"/>
        <path id="DejaVuSans-66" d="M 2375 4863 
L 2375 4384 
L 1825 4384 
Q 1516 4384 1395 4259 
Q 1275 4134 1275 3809 
L 1275 3500 
L 2222 3500 
L 2222 3053 
L 1275 3053 
L 1275 0 
L 697 0 
L 697 3053 
L 147 3053 
L 147 3500 
L 697 3500 
L 697 3744 
Q 697 4328 969 4595 
Q 1241 4863 1831 4863 
L 2375 4863 
z
" transform="scale(0.015625)"/>
        <path id="DejaVuSans-78" d="M 3513 3500 
L 2247 1797 
L 3578 0 
L 2900 0 
L 1881 1375 
L 863 0 
L 184 0 
L 1544 1831 
L 300 3500 
L 978 3500 
L 1906 2253 
L 2834 3500 
L 3513 3500 
z
" transform="scale(0.015625)"/>
        <path id="DejaVuSans-62" d="M 3116 1747 
Q 3116 2381 2855 2742 
Q 2594 3103 2138 3103 
Q 1681 3103 1420 2742 
Q 1159 2381 1159 1747 
Q 1159 1113 1420 752 
Q 1681 391 2138 391 
Q 2594 391 2855 752 
Q 3116 1113 3116 1747 
z
M 1159 2969 
Q 1341 3281 1617 3432 
Q 1894 3584 2278 3584 
Q 2916 3584 3314 3078 
Q 3713 2572 3713 1747 
Q 3713 922 3314 415 
Q 2916 -91 2278 -91 
Q 1894 -91 1617 61 
Q 1341 213 1159 525 
L 1159 0 
L 581 0 
L 581 4863 
L 1159 4863 
L 1159 2969 
z
" transform="scale(0.015625)"/>
        <path id="DejaVuSans-29" d="M 513 4856 
L 1013 4856 
Q 1481 4119 1714 3412 
Q 1947 2706 1947 2009 
Q 1947 1309 1714 600 
Q 1481 -109 1013 -844 
L 513 -844 
Q 928 -128 1133 580 
Q 1338 1288 1338 2009 
Q 1338 2731 1133 3434 
Q 928 4138 513 4856 
z
" transform="scale(0.015625)"/>
       </defs>
       <use xlink:href="#DejaVuSans-28"/>
       <use xlink:href="#DejaVuSans-66" transform="translate(39.013672 0)"/>
       <use xlink:href="#DejaVuSans-6c" transform="translate(74.21875 0)"/>
       <use xlink:href="#DejaVuSans-65" transform="translate(102.001953 0)"/>
       <use xlink:href="#DejaVuSans-78" transform="translate(161.775391 0)"/>
       <use xlink:href="#DejaVuSans-69" transform="translate(220.955078 0)"/>
       <use xlink:href="#DejaVuSans-62" transform="translate(248.738281 0)"/>
       <use xlink:href="#DejaVuSans-6c" transform="translate(312.214844 0)"/>
       <use xlink:href="#DejaVuSans-65" transform="translate(339.998047 0)"/>
       <use xlink:href="#DejaVuSans-2d" transform="translate(401.521484 0)"/>
       <use xlink:href="#DejaVuSans-73" transform="translate(437.605469 0)"/>
       <use xlink:href="#DejaVuSans-74" transform="translate(489.705078 0)"/>
       <use xlink:href="#DejaVuSans-72" transform="translate(528.914062 0)"/>
       <use xlink:href="#DejaVuSans-69" transform="translate(570.027344 0)"/>
       <use xlink:href="#DejaVuSans-6e" transform="translate(597.810547 0)"/>
       <use xlink:href="#DejaVuSans-67" transform="translate(661.189453 0)"/>
       <use xlink:href="#DejaVuSans-29" transform="translate(724.666016 0)"/>
      </g>
     </g>
    </g>
    <g id="ytick_2">
     <g id="line2d_10">
      <g>
       <use xlink:href="#m6b85edcb11" x="90.56875" y="87.733125" style="stroke: #000000; stroke-width: 0.8"/>
      </g>
     </g>
     <g id="text_11">
      <!-- spdlog-rs -->
      <g style="fill: #ff0000" transform="translate(37.489063 86.693281) scale(0.1 -0.1)">
       <use xlink:href="#DejaVuSans-73"/>
       <use xlink:href="#DejaVuSans-70" transform="translate(52.099609 0)"/>
       <use xlink:href="#DejaVuSans-64" transform="translate(115.576172 0)"/>
       <use xlink:href="#DejaVuSans-6c" transform="translate(179.052734 0)"/>
       <use xlink:href="#DejaVuSans-6f" transform="translate(206.835938 0)"/>
       <use xlink:href="#DejaVuSans-67" transform="translate(268.017578 0)"/>
       <use xlink:href="#DejaVuSans-2d" transform="translate(331.494141 0)"/>
       <use xlink:href="#DejaVuSans-72" transform="translate(367.578125 0)"/>
       <use xlink:href="#DejaVuSans-73" transform="translate(408.691406 0)"/>
      </g>
      <!-- 0.5.0 -->
      <g style="fill: #ff0000" transform="translate(58.125 97.891094) scale(0.1 -0.1)">
       <use xlink:href="#DejaVuSans-30"/>
       <use xlink:href="#DejaVuSans-2e" transform="translate(63.623047 0)"/>
       <use xlink:href="#DejaVuSans-35" transform="translate(95.410156 0)"/>
       <use xlink:href="#DejaVuSans-2e" transform="translate(159.033203 0)"/>
       <use xlink:href="#DejaVuSans-30" transform="translate(190.820312 0)"/>
      </g>
     </g>
    </g>
    <g id="ytick_3">
     <g id="line2d_11">
      <g>
       <use xlink:href="#m6b85edcb11" x="90.56875" y="124.483125" style="stroke: #000000; stroke-width: 0.8"/>
      </g>
     </g>
     <g id="text_12">
      <!-- flexi_logger -->
      <g transform="translate(25.7375 123.304219) scale(0.1 -0.1)">
       <defs>
        <path id="DejaVuSans-5f" d="M 3263 -1063 
L 3263 -1509 
L -63 -1509 
L -63 -1063 
L 3263 -1063 
z
" transform="scale(0.015625)"/>
       </defs>
       <use xlink:href="#DejaVuSans-66"/>
       <use xlink:href="#DejaVuSans-6c" transform="translate(35.205078 0)"/>
       <use xlink:href="#DejaVuSans-65" transform="translate(62.988281 0)"/>
       <use xlink:href="#DejaVuSans-78" transform="translate(122.761719 0)"/>
       <use xlink:href="#DejaVuSans-69" transform="translate(181.941406 0)"/>
       <use xlink:href="#DejaVuSans-5f" transform="translate(209.724609 0)"/>
       <use xlink:href="#DejaVuSans-6c" transform="translate(259.724609 0)"/>
       <use xlink:href="#DejaVuSans-6f" transform="translate(287.507812 0)"/>
       <use xlink:href="#DejaVuSans-67" transform="translate(348.689453 0)"/>
       <use xlink:href="#DejaVuSans-67" transform="translate(412.166016 0)"/>
       <use xlink:href="#DejaVuSans-65" transform="translate(475.642578 0)"/>
       <use xlink:href="#DejaVuSans-72" transform="translate(537.166016 0)"/>
      </g>
      <!-- 0.31.4 -->
      <g transform="translate(51.7625 134.780156) scale(0.1 -0.1)">
       <defs>
        <path id="DejaVuSans-34" d="M 2419 4116 
L 825 1625 
L 2419 1625 
L 2419 4116 
z
M 2253 4666 
L 3047 4666 
L 3047 1625 
L 3713 1625 
L 3713 1100 
L 3047 1100 
L 3047 0 
L 2419 0 
L 2419 1100 
L 313 1100 
L 313 1709 
L 2253 4666 
z
" transform="scale(0.015625)"/>
       </defs>
       <use xlink:href="#DejaVuSans-30"/>
       <use xlink:href="#DejaVuSans-2e" transform="translate(63.623047 0)"/>
       <use xlink:href="#DejaVuSans-33" transform="translate(95.410156 0)"/>
       <use xlink:href="#DejaVuSans-31" transform="translate(159.033203 0)"/>
       <use xlink:href="#DejaVuSans-2e" transform="translate(222.65625 0)"/>
       <use xlink:href="#DejaVuSans-34" transform="translate(254.443359 0)"/>
      </g>
     </g>
    </g>
    <g id="ytick_4">
     <g id="line2d_12">
      <g>
       <use xlink:href="#m6b85edcb11" x="90.56875" y="161.233125" style="stroke: #000000; stroke-width: 0.8"/>
      </g>
     </g>
     <g id="text_13">
      <!-- tracing -->
      <g transform="translate(48.446875 160.193281) scale(0.1 -0.1)">
       <defs>
        <path id="DejaVuSans-61" d="M 2194 1759 
Q 1497 1759 1228 1600 
Q 959 1441 959 1056 
Q 959 750 1161 570 
Q 1363 391 1709 391 
Q 2188 391 2477 730 
Q 2766 1069 2766 1631 
L 2766 1759 
L 2194 1759 
z
M 3341 1997 
L 3341 0 
L 2766 0 
L 2766 531 
Q 2569 213 2275 61 
Q 1981 -91 1556 -91 
Q 1019 -91 701 211 
Q 384 513 384 1019 
Q 384 1609 779 1909 
Q 1175 2209 1959 2209 
L 2766 2209 
L 2766 2266 
Q 2766 2663 2505 2880 
Q 2244 3097 1772 3097 
Q 1472 3097 1187 3025 
Q 903 2953 641 2809 
L 641 3341 
Q 956 3463 1253 3523 
Q 1550 3584 1831 3584 
Q 2591 3584 2966 3190 
Q 3341 2797 3341 1997 
z
" transform="scale(0.015625)"/>
        <path id="DejaVuSans-63" d="M 3122 3366 
L 3122 2828 
Q 2878 2963 2633 3030 
Q 2388 3097 2138 3097 
Q 1578 3097 1268 2742 
Q 959 2388 959 1747 
Q 959 1106 1268 751 
Q 1578 397 2138 397 
Q 2388 397 2633 464 
Q 2878 531 3122 666 
L 3122 134 
Q 2881 22 2623 -34 
Q 2366 -91 2075 -91 
Q 1284 -91 818 406 
Q 353 903 353 1747 
Q 353 2603 823 3093 
Q 1294 3584 2113 3584 
Q 2378 3584 2631 3529 
Q 2884 3475 3122 3366 
z
" transform="scale(0.015625)"/>
       </defs>
       <use xlink:href="#DejaVuSans-74"/>
       <use xlink:href="#DejaVuSans-72" transform="translate(39.208984 0)"/>
       <use xlink:href="#DejaVuSans-61" transform="translate(80.322266 0)"/>
       <use xlink:href="#DejaVuSans-63" transform="translate(141.601562 0)"/>
       <use xlink:href="#DejaVuSans-69" transform="translate(196.582031 0)"/>
       <use xlink:href="#DejaVuSans-6e" transform="translate(224.365234 0)"/>
       <use xlink:href="#DejaVuSans-67" transform="translate(287.744141 0)"/>
      </g>
      <!-- 0.1.41 -->
      <g transform="translate(51.7625 171.391094) scale(0.1 -0.1)">
       <use xlink:href="#DejaVuSans-30"/>
       <use xlink:href="#DejaVuSans-2e" transform="translate(63.623047 0)"/>
       <use xlink:href="#DejaVuSans-31" transform="translate(95.410156 0)"/>
       <use xlink:href="#DejaVuSans-2e" transform="translate(159.033203 0)"/>
       <use xlink:href="#DejaVuSans-34" transform="translate(190.820312 0)"/>
       <use xlink:href="#DejaVuSans-31" transform="translate(254.443359 0)"/>
      </g>
     </g>
    </g>
    <g id="ytick_5">
     <g id="line2d_13">
      <g>
       <use xlink:href="#m6b85edcb11" x="90.56875" y="197.983125" style="stroke: #000000; stroke-width: 0.8"/>
      </g>
     </g>
     <g id="text_14">
      <!-- fern -->
      <g transform="translate(63.621875 196.943281) scale(0.1 -0.1)">
       <use xlink:href="#DejaVuSans-66"/>
       <use xlink:href="#DejaVuSans-65" transform="translate(35.205078 0)"/>
       <use xlink:href="#DejaVuSans-72" transform="translate(96.728516 0)"/>
       <use xlink:href="#DejaVuSans-6e" transform="translate(136.091797 0)"/>
      </g>
      <!-- 0.7.1 -->
      <g transform="translate(58.125 208.141094) scale(0.1 -0.1)">
       <defs>
        <path id="DejaVuSans-37" d="M 525 4666 
L 3525 4666 
L 3525 4397 
L 1831 0 
L 1172 0 
L 2766 4134 
L 525 4134 
L 525 4666 
z
" transform="scale(0.015625)"/>
       </defs>
       <use xlink:href="#DejaVuSans-30"/>
       <use xlink:href="#DejaVuSans-2e" transform="translate(63.623047 0)"/>
       <use xlink:href="#DejaVuSans-37" transform="translate(95.410156 0)"/>
       <use xlink:href="#DejaVuSans-2e" transform="translate(159.033203 0)"/>
       <use xlink:href="#DejaVuSans-31" transform="translate(190.820312 0)"/>
      </g>
     </g>
    </g>
    <g id="ytick_6">
     <g id="line2d_14">
      <g>
       <use xlink:href="#m6b85edcb11" x="90.56875" y="234.733125" style="stroke: #000000; stroke-width: 0.8"/>
      </g>
     </g>
     <g id="text_15">
      <!-- log4rs -->
      <g transform="translate(52.640625 233.693281) scale(0.1 -0.1)">
       <use xlink:href="#DejaVuSans-6c"/>
       <use xlink:href="#DejaVuSans-6f" transform="translate(27.783203 0)"/>
       <use xlink:href="#DejaVuSans-67" transform="translate(88.964844 0)"/>
       <use xlink:href="#DejaVuSans-34" transform="translate(152.441406 0)"/>
       <use xlink:href="#DejaVuSans-72" transform="translate(216.064453 0)"/>
       <use xlink:href="#DejaVuSans-73" transform="translate(257.177734 0)"/>
      </g>
      <!-- 1.4.0 -->
      <g transform="translate(58.125 244.891094) scale(0.1 -0.1)">
       <use xlink:href="#DejaVuSans-31"/>
       <use xlink:href="#DejaVuSans-2e" transform="translate(63.623047 0)"/>
       <use xlink:href="#DejaVuSans-34" transform="translate(95.410156 0)"/>
       <use xlink:href="#DejaVuSans-2e" transform="translate(159.033203 0)"/>
       <use xlink:href="#DejaVuSans-30" transform="translate(190.820312 0)"/>
      </g>
     </g>
    </g>
    <g id="ytick_7">
     <g id="line2d_15">
      <g>
       <use xlink:href="#m6b85edcb11" x="90.56875" y="271.483125" style="stroke: #000000; stroke-width: 0.8"/>
      </g>
     </g>
     <g id="text_16">
      <!-- slog -->
      <g transform="translate(63.114063 270.443281) scale(0.1 -0.1)">
       <use xlink:href="#DejaVuSans-73"/>
       <use xlink:href="#DejaVuSans-6c" transform="translate(52.099609 0)"/>
       <use xlink:href="#DejaVuSans-6f" transform="translate(79.882812 0)"/>
       <use xlink:href="#DejaVuSans-67" transform="translate(141.064453 0)"/>
      </g>
      <!-- 2.7.0 -->
      <g transform="translate(58.125 281.641094) scale(0.1 -0.1)">
       <use xlink:href="#DejaVuSans-32"/>
       <use xlink:href="#DejaVuSans-2e" transform="translate(63.623047 0)"/>
       <use xlink:href="#DejaVuSans-37" transform="translate(95.410156 0)"/>
       <use xlink:href="#DejaVuSans-2e" transform="translate(159.033203 0)"/>
       <use xlink:href="#DejaVuSans-30" transform="translate(190.820312 0)"/>
      </g>
     </g>
    </g>
    <g id="ytick_8">
     <g id="line2d_16">
      <g>
       <use xlink:href="#m6b85edcb11" x="90.56875" y="308.233125" style="stroke: #000000; stroke-width: 0.8"/>
      </g>
     </g>
     <g id="text_17">
      <!-- ftlog -->
      <g transform="translate(61.057813 307.193281) scale(0.1 -0.1)">
       <use xlink:href="#DejaVuSans-66"/>
       <use xlink:href="#DejaVuSans-74" transform="translate(33.455078 0)"/>
       <use xlink:href="#DejaVuSans-6c" transform="translate(72.664062 0)"/>
       <use xlink:href="#DejaVuSans-6f" transform="translate(100.447266 0)"/>
       <use xlink:href="#DejaVuSans-67" transform="translate(161.628906 0)"/>
      </g>
      <!-- 0.2.15 -->
      <g transform="translate(51.7625 318.391094) scale(0.1 -0.1)">
       <use xlink:href="#DejaVuSans-30"/>
       <use xlink:href="#DejaVuSans-2e" transform="translate(63.623047 0)"/>
       <use xlink:href="#DejaVuSans-32" transform="translate(95.410156 0)"/>
       <use xlink:href="#DejaVuSans-2e" transform="translate(159.033203 0)"/>
       <use xlink:href="#DejaVuSans-31" transform="translate(190.820312 0)"/>
       <use xlink:href="#DejaVuSans-35" transform="translate(254.443359 0)"/>
      </g>
     </g>
    </g>
    <g id="ytick_9">
     <g id="line2d_17">
      <g>
       <use xlink:href="#m6b85edcb11" x="90.56875" y="344.983125" style="stroke: #000000; stroke-width: 0.8"/>
      </g>
     </g>
     <g id="text_18">
      <!-- fast_log -->
      <g transform="translate(44.545313 343.804219) scale(0.1 -0.1)">
       <use xlink:href="#DejaVuSans-66"/>
       <use xlink:href="#DejaVuSans-61" transform="translate(35.205078 0)"/>
       <use xlink:href="#DejaVuSans-73" transform="translate(96.484375 0)"/>
       <use xlink:href="#DejaVuSans-74" transform="translate(148.583984 0)"/>
       <use xlink:href="#DejaVuSans-5f" transform="translate(187.792969 0)"/>
       <use xlink:href="#DejaVuSans-6c" transform="translate(237.792969 0)"/>
       <use xlink:href="#DejaVuSans-6f" transform="translate(265.576172 0)"/>
       <use xlink:href="#DejaVuSans-67" transform="translate(326.757812 0)"/>
      </g>
      <!-- 1.7.7 -->
      <g transform="translate(58.125 355.280156) scale(0.1 -0.1)">
       <use xlink:href="#DejaVuSans-31"/>
       <use xlink:href="#DejaVuSans-2e" transform="translate(63.623047 0)"/>
       <use xlink:href="#DejaVuSans-37" transform="translate(95.410156 0)"/>
       <use xlink:href="#DejaVuSans-2e" transform="translate(159.033203 0)"/>
       <use xlink:href="#DejaVuSans-37" transform="translate(190.820312 0)"/>
      </g>
     </g>
    </g>
    <g id="ytick_10">
     <g id="line2d_18">
      <g>
       <use xlink:href="#m6b85edcb11" x="90.56875" y="381.733125" style="stroke: #000000; stroke-width: 0.8"/>
      </g>
     </g>
     <g id="text_19">
      <!-- logforth -->
      <g transform="translate(44.315625 380.693281) scale(0.1 -0.1)">
       <defs>
        <path id="DejaVuSans-68" d="M 3513 2113 
L 3513 0 
L 2938 0 
L 2938 2094 
Q 2938 2591 2744 2837 
Q 2550 3084 2163 3084 
Q 1697 3084 1428 2787 
Q 1159 2491 1159 1978 
L 1159 0 
L 581 0 
L 581 4863 
L 1159 4863 
L 1159 2956 
Q 1366 3272 1645 3428 
Q 1925 3584 2291 3584 
Q 2894 3584 3203 3211 
Q 3513 2838 3513 2113 
z
" transform="scale(0.015625)"/>
       </defs>
       <use xlink:href="#DejaVuSans-6c"/>
       <use xlink:href="#DejaVuSans-6f" transform="translate(27.783203 0)"/>
       <use xlink:href="#DejaVuSans-67" transform="translate(88.964844 0)"/>
       <use xlink:href="#DejaVuSans-66" transform="translate(152.441406 0)"/>
       <use xlink:href="#DejaVuSans-6f" transform="translate(187.646484 0)"/>
       <use xlink:href="#DejaVuSans-72" transform="translate(248.828125 0)"/>
       <use xlink:href="#DejaVuSans-74" transform="translate(289.941406 0)"/>
       <use xlink:href="#DejaVuSans-68" transform="translate(329.150391 0)"/>
      </g>
      <!-- 0.27.0 -->
      <g transform="translate(51.7625 391.891094) scale(0.1 -0.1)">
       <use xlink:href="#DejaVuSans-30"/>
       <use xlink:href="#DejaVuSans-2e" transform="translate(63.623047 0)"/>
       <use xlink:href="#DejaVuSans-32" transform="translate(95.410156 0)"/>
       <use xlink:href="#DejaVuSans-37" transform="translate(159.033203 0)"/>
       <use xlink:href="#DejaVuSans-2e" transform="translate(222.65625 0)"/>
       <use xlink:href="#DejaVuSans-30" transform="translate(254.443359 0)"/>
      </g>
     </g>
    </g>
   </g>
   <g id="patch_13">
    <path d="M 90.56875 410.398125 
L 90.56875 22.318125 
" style="fill: none; stroke: #000000; stroke-width: 0.8; stroke-linejoin: miter; stroke-linecap: square"/>
   </g>
   <g id="patch_14">
    <path d="M 648.56875 410.398125 
L 648.56875 22.318125 
" style="fill: none; stroke: #000000; stroke-width: 0.8; stroke-linejoin: miter; stroke-linecap: square"/>
   </g>
   <g id="patch_15">
    <path d="M 90.56875 410.398125 
L 648.56875 410.398125 
" style="fill: none; stroke: #000000; stroke-width: 0.8; stroke-linejoin: miter; stroke-linecap: square"/>
   </g>
   <g id="patch_16">
    <path d="M 90.56875 22.318125 
L 648.56875 22.318125 
" style="fill: none; stroke: #000000; stroke-width: 0.8; stroke-linejoin: miter; stroke-linecap: square"/>
   </g>
   <g id="text_20">
    <!-- 170.79 (+/- 10.3) -->
    <g transform="translate(119.572234 53.7425) scale(0.1 -0.1)">
     <defs>
      <path id="DejaVuSans-39" d="M 703 97 
L 703 672 
Q 941 559 1184 500 
Q 1428 441 1663 441 
Q 2288 441 2617 861 
Q 2947 1281 2994 2138 
Q 2813 1869 2534 1725 
Q 2256 1581 1919 1581 
Q 1219 1581 811 2004 
Q 403 2428 403 3163 
Q 403 3881 828 4315 
Q 1253 4750 1959 4750 
Q 2769 4750 3195 4129 
Q 3622 3509 3622 2328 
Q 3622 1225 3098 567 
Q 2575 -91 1691 -91 
Q 1453 -91 1209 -44 
Q 966 3 703 97 
z
M 1959 2075 
Q 2384 2075 2632 2365 
Q 2881 2656 2881 3163 
Q 2881 3666 2632 3958 
Q 2384 4250 1959 4250 
Q 1534 4250 1286 3958 
Q 1038 3666 1038 3163 
Q 1038 2656 1286 2365 
Q 1534 2075 1959 2075 
z
" transform="scale(0.015625)"/>
      <path id="DejaVuSans-20" transform="scale(0.015625)"/>
      <path id="DejaVuSans-2b" d="M 2944 4013 
L 2944 2272 
L 4684 2272 
L 4684 1741 
L 2944 1741 
L 2944 0 
L 2419 0 
L 2419 1741 
L 678 1741 
L 678 2272 
L 2419 2272 
L 2419 4013 
L 2944 4013 
z
" transform="scale(0.015625)"/>
     </defs>
     <use xlink:href="#DejaVuSans-31"/>
     <use xlink:href="#DejaVuSans-37" transform="translate(63.623047 0)"/>
     <use xlink:href="#DejaVuSans-30" transform="translate(127.246094 0)"/>
     <use xlink:href="#DejaVuSans-2e" transform="translate(190.869141 0)"/>
     <use xlink:href="#DejaVuSans-37" transform="translate(222.65625 0)"/>
     <use xlink:href="#DejaVuSans-39" transform="translate(286.279297 0)"/>
     <use xlink:href="#DejaVuSans-20" transform="translate(349.902344 0)"/>
     <use xlink:href="#DejaVuSans-28" transform="translate(381.689453 0)"/>
     <use xlink:href="#DejaVuSans-2b" transform="translate(420.703125 0)"/>
     <use xlink:href="#DejaVuSans-2f" transform="translate(504.492188 0)"/>
     <use xlink:href="#DejaVuSans-2d" transform="translate(538.183594 0)"/>
     <use xlink:href="#DejaVuSans-20" transform="translate(574.267578 0)"/>
     <use xlink:href="#DejaVuSans-31" transform="translate(606.054688 0)"/>
     <use xlink:href="#DejaVuSans-30" transform="translate(669.677734 0)"/>
     <use xlink:href="#DejaVuSans-2e" transform="translate(733.300781 0)"/>
     <use xlink:href="#DejaVuSans-33" transform="translate(765.087891 0)"/>
     <use xlink:href="#DejaVuSans-29" transform="translate(828.710938 0)"/>
    </g>
   </g>
   <g id="text_21">
    <!-- 201.82 (+/- 10.63) -->
    <g transform="translate(124.29668 90.4925) scale(0.1 -0.1)">
     <defs>
      <path id="DejaVuSans-38" d="M 2034 2216 
Q 1584 2216 1326 1975 
Q 1069 1734 1069 1313 
Q 1069 891 1326 650 
Q 1584 409 2034 409 
Q 2484 409 2743 651 
Q 3003 894 3003 1313 
Q 3003 1734 2745 1975 
Q 2488 2216 2034 2216 
z
M 1403 2484 
Q 997 2584 770 2862 
Q 544 3141 544 3541 
Q 544 4100 942 4425 
Q 1341 4750 2034 4750 
Q 2731 4750 3128 4425 
Q 3525 4100 3525 3541 
Q 3525 3141 3298 2862 
Q 3072 2584 2669 2484 
Q 3125 2378 3379 2068 
Q 3634 1759 3634 1313 
Q 3634 634 3220 271 
Q 2806 -91 2034 -91 
Q 1263 -91 848 271 
Q 434 634 434 1313 
Q 434 1759 690 2068 
Q 947 2378 1403 2484 
z
M 1172 3481 
Q 1172 3119 1398 2916 
Q 1625 2713 2034 2713 
Q 2441 2713 2670 2916 
Q 2900 3119 2900 3481 
Q 2900 3844 2670 4047 
Q 2441 4250 2034 4250 
Q 1625 4250 1398 4047 
Q 1172 3844 1172 3481 
z
" transform="scale(0.015625)"/>
      <path id="DejaVuSans-36" d="M 2113 2584 
Q 1688 2584 1439 2293 
Q 1191 2003 1191 1497 
Q 1191 994 1439 701 
Q 1688 409 2113 409 
Q 2538 409 2786 701 
Q 3034 994 3034 1497 
Q 3034 2003 2786 2293 
Q 2538 2584 2113 2584 
z
M 3366 4563 
L 3366 3988 
Q 3128 4100 2886 4159 
Q 2644 4219 2406 4219 
Q 1781 4219 1451 3797 
Q 1122 3375 1075 2522 
Q 1259 2794 1537 2939 
Q 1816 3084 2150 3084 
Q 2853 3084 3261 2657 
Q 3669 2231 3669 1497 
Q 3669 778 3244 343 
Q 2819 -91 2113 -91 
Q 1303 -91 875 529 
Q 447 1150 447 2328 
Q 447 3434 972 4092 
Q 1497 4750 2381 4750 
Q 2619 4750 2861 4703 
Q 3103 4656 3366 4563 
z
" transform="scale(0.015625)"/>
     </defs>
     <use xlink:href="#DejaVuSans-32"/>
     <use xlink:href="#DejaVuSans-30" transform="translate(63.623047 0)"/>
     <use xlink:href="#DejaVuSans-31" transform="translate(127.246094 0)"/>
     <use xlink:href="#DejaVuSans-2e" transform="translate(190.869141 0)"/>
     <use xlink:href="#DejaVuSans-38" transform="translate(222.65625 0)"/>
     <use xlink:href="#DejaVuSans-32" transform="translate(286.279297 0)"/>
     <use xlink:href="#DejaVuSans-20" transform="translate(349.902344 0)"/>
     <use xlink:href="#DejaVuSans-28" transform="translate(381.689453 0)"/>
     <use xlink:href="#DejaVuSans-2b" transform="translate(420.703125 0)"/>
     <use xlink:href="#DejaVuSans-2f" transform="translate(504.492188 0)"/>
     <use xlink:href="#DejaVuSans-2d" transform="translate(538.183594 0)"/>
     <use xlink:href="#DejaVuSans-20" transform="translate(574.267578 0)"/>
     <use xlink:href="#DejaVuSans-31" transform="translate(606.054688 0)"/>
     <use xlink:href="#DejaVuSans-30" transform="translate(669.677734 0)"/>
     <use xlink:href="#DejaVuSans-2e" transform="translate(733.300781 0)"/>
     <use xlink:href="#DejaVuSans-36" transform="translate(765.087891 0)"/>
     <use xlink:href="#DejaVuSans-33" transform="translate(828.710938 0)"/>
     <use xlink:href="#DejaVuSans-29" transform="translate(892.333984 0)"/>
    </g>
   </g>
   <g id="text_22">
    <!-- 1172.3 (+/- 73.46) -->
    <g transform="translate(272.056277 127.2425) scale(0.1 -0.1)">
     <use xlink:href="#DejaVuSans-31"/>
     <use xlink:href="#DejaVuSans-31" transform="translate(63.623047 0)"/>
     <use xlink:href="#DejaVuSans-37" transform="translate(127.246094 0)"/>
     <use xlink:href="#DejaVuSans-32" transform="translate(190.869141 0)"/>
     <use xlink:href="#DejaVuSans-2e" transform="translate(254.492188 0)"/>
     <use xlink:href="#DejaVuSans-33" transform="translate(286.279297 0)"/>
     <use xlink:href="#DejaVuSans-20" transform="translate(349.902344 0)"/>
     <use xlink:href="#DejaVuSans-28" transform="translate(381.689453 0)"/>
     <use xlink:href="#DejaVuSans-2b" transform="translate(420.703125 0)"/>
     <use xlink:href="#DejaVuSans-2f" transform="translate(504.492188 0)"/>
     <use xlink:href="#DejaVuSans-2d" transform="translate(538.183594 0)"/>
     <use xlink:href="#DejaVuSans-20" transform="translate(574.267578 0)"/>
     <use xlink:href="#DejaVuSans-37" transform="translate(606.054688 0)"/>
     <use xlink:href="#DejaVuSans-33" transform="translate(669.677734 0)"/>
     <use xlink:href="#DejaVuSans-2e" transform="translate(733.300781 0)"/>
     <use xlink:href="#DejaVuSans-34" transform="translate(765.087891 0)"/>
     <use xlink:href="#DejaVuSans-36" transform="translate(828.710938 0)"/>
     <use xlink:href="#DejaVuSans-29" transform="translate(892.333984 0)"/>
    </g>
   </g>
   <g id="text_23">
    <!-- 2479.67 (+/- 224.87) -->
    <g transform="translate(471.108771 163.9925) scale(0.1 -0.1)">
     <use xlink:href="#DejaVuSans-32"/>
     <use xlink:href="#DejaVuSans-34" transform="translate(63.623047 0)"/>
     <use xlink:href="#DejaVuSans-37" transform="translate(127.246094 0)"/>
     <use xlink:href="#DejaVuSans-39" transform="translate(190.869141 0)"/>
     <use xlink:href="#DejaVuSans-2e" transform="translate(254.492188 0)"/>
     <use xlink:href="#DejaVuSans-36" transform="translate(286.279297 0)"/>
     <use xlink:href="#DejaVuSans-37" transform="translate(349.902344 0)"/>
     <use xlink:href="#DejaVuSans-20" transform="translate(413.525391 0)"/>
     <use xlink:href="#DejaVuSans-28" transform="translate(445.3125 0)"/>
     <use xlink:href="#DejaVuSans-2b" transform="translate(484.326172 0)"/>
     <use xlink:href="#DejaVuSans-2f" transform="translate(568.115234 0)"/>
     <use xlink:href="#DejaVuSans-2d" transform="translate(601.806641 0)"/>
     <use xlink:href="#DejaVuSans-20" transform="translate(637.890625 0)"/>
     <use xlink:href="#DejaVuSans-32" transform="translate(669.677734 0)"/>
     <use xlink:href="#DejaVuSans-32" transform="translate(733.300781 0)"/>
     <use xlink:href="#DejaVuSans-34" transform="translate(796.923828 0)"/>
     <use xlink:href="#DejaVuSans-2e" transform="translate(860.546875 0)"/>
     <use xlink:href="#DejaVuSans-38" transform="translate(892.333984 0)"/>
     <use xlink:href="#DejaVuSans-37" transform="translate(955.957031 0)"/>
     <use xlink:href="#DejaVuSans-29" transform="translate(1019.580078 0)"/>
    </g>
   </g>
   <g id="text_24">
    <!-- 2927.74 (+/- 180.88) -->
    <g transform="translate(539.329283 200.7425) scale(0.1 -0.1)">
     <use xlink:href="#DejaVuSans-32"/>
     <use xlink:href="#DejaVuSans-39" transform="translate(63.623047 0)"/>
     <use xlink:href="#DejaVuSans-32" transform="translate(127.246094 0)"/>
     <use xlink:href="#DejaVuSans-37" transform="translate(190.869141 0)"/>
     <use xlink:href="#DejaVuSans-2e" transform="translate(254.492188 0)"/>
     <use xlink:href="#DejaVuSans-37" transform="translate(286.279297 0)"/>
     <use xlink:href="#DejaVuSans-34" transform="translate(349.902344 0)"/>
     <use xlink:href="#DejaVuSans-20" transform="translate(413.525391 0)"/>
     <use xlink:href="#DejaVuSans-28" transform="translate(445.3125 0)"/>
     <use xlink:href="#DejaVuSans-2b" transform="translate(484.326172 0)"/>
     <use xlink:href="#DejaVuSans-2f" transform="translate(568.115234 0)"/>
     <use xlink:href="#DejaVuSans-2d" transform="translate(601.806641 0)"/>
     <use xlink:href="#DejaVuSans-20" transform="translate(637.890625 0)"/>
     <use xlink:href="#DejaVuSans-31" transform="translate(669.677734 0)"/>
     <use xlink:href="#DejaVuSans-38" transform="translate(733.300781 0)"/>
     <use xlink:href="#DejaVuSans-30" transform="translate(796.923828 0)"/>
     <use xlink:href="#DejaVuSans-2e" transform="translate(860.546875 0)"/>
     <use xlink:href="#DejaVuSans-38" transform="translate(892.333984 0)"/>
     <use xlink:href="#DejaVuSans-38" transform="translate(955.957031 0)"/>
     <use xlink:href="#DejaVuSans-29" transform="translate(1019.580078 0)"/>
    </g>
   </g>
   <g id="text_25">
    <!-- 2931.94 (+/- 201.13) -->
    <g transform="translate(539.96875 237.4925) scale(0.1 -0.1)">
     <use xlink:href="#DejaVuSans-32"/>
     <use xlink:href="#DejaVuSans-39" transform="translate(63.623047 0)"/>
     <use xlink:href="#DejaVuSans-33" transform="translate(127.246094 0)"/>
     <use xlink:href="#DejaVuSans-31" transform="translate(190.869141 0)"/>
     <use xlink:href="#DejaVuSans-2e" transform="translate(254.492188 0)"/>
     <use xlink:href="#DejaVuSans-39" transform="translate(286.279297 0)"/>
     <use xlink:href="#DejaVuSans-34" transform="translate(349.902344 0)"/>
     <use xlink:href="#DejaVuSans-20" transform="translate(413.525391 0)"/>
     <use xlink:href="#DejaVuSans-28" transform="translate(445.3125 0)"/>
     <use xlink:href="#DejaVuSans-2b" transform="translate(484.326172 0)"/>
     <use xlink:href="#DejaVuSans-2f" transform="translate(568.115234 0)"/>
     <use xlink:href="#DejaVuSans-2d" transform="translate(601.806641 0)"/>
     <use xlink:href="#DejaVuSans-20" transform="translate(637.890625 0)"/>
     <use xlink:href="#DejaVuSans-32" transform="translate(669.677734 0)"/>
     <use xlink:href="#DejaVuSans-30" transform="translate(733.300781 0)"/>
     <use xlink:href="#DejaVuSans-31" transform="translate(796.923828 0)"/>
     <use xlink:href="#DejaVuSans-2e" transform="translate(860.546875 0)"/>
     <use xlink:href="#DejaVuSans-31" transform="translate(892.333984 0)"/>
     <use xlink:href="#DejaVuSans-33" transform="translate(955.957031 0)"/>
     <use xlink:href="#DejaVuSans-29" transform="translate(1019.580078 0)"/>
    </g>
   </g>
   <g id="text_26">
    <!-- Unsupported -->
    <g transform="translate(93.56875 274.2425) scale(0.1 -0.1)">
     <defs>
      <path id="DejaVuSans-55" d="M 556 4666 
L 1191 4666 
L 1191 1831 
Q 1191 1081 1462 751 
Q 1734 422 2344 422 
Q 2950 422 3222 751 
Q 3494 1081 3494 1831 
L 3494 4666 
L 4128 4666 
L 4128 1753 
Q 4128 841 3676 375 
Q 3225 -91 2344 -91 
Q 1459 -91 1007 375 
Q 556 841 556 1753 
L 556 4666 
z
" transform="scale(0.015625)"/>
      <path id="DejaVuSans-75" d="M 544 1381 
L 544 3500 
L 1119 3500 
L 1119 1403 
Q 1119 906 1312 657 
Q 1506 409 1894 409 
Q 2359 409 2629 706 
Q 2900 1003 2900 1516 
L 2900 3500 
L 3475 3500 
L 3475 0 
L 2900 0 
L 2900 538 
Q 2691 219 2414 64 
Q 2138 -91 1772 -91 
Q 1169 -91 856 284 
Q 544 659 544 1381 
z
M 1991 3584 
L 1991 3584 
z
" transform="scale(0.015625)"/>
     </defs>
     <use xlink:href="#DejaVuSans-55"/>
     <use xlink:href="#DejaVuSans-6e" transform="translate(73.193359 0)"/>
     <use xlink:href="#DejaVuSans-73" transform="translate(136.572266 0)"/>
     <use xlink:href="#DejaVuSans-75" transform="translate(188.671875 0)"/>
     <use xlink:href="#DejaVuSans-70" transform="translate(252.050781 0)"/>
     <use xlink:href="#DejaVuSans-70" transform="translate(315.527344 0)"/>
     <use xlink:href="#DejaVuSans-6f" transform="translate(379.003906 0)"/>
     <use xlink:href="#DejaVuSans-72" transform="translate(440.185547 0)"/>
     <use xlink:href="#DejaVuSans-74" transform="translate(481.298828 0)"/>
     <use xlink:href="#DejaVuSans-65" transform="translate(520.507812 0)"/>
     <use xlink:href="#DejaVuSans-64" transform="translate(582.03125 0)"/>
    </g>
   </g>
   <g id="text_27">
    <!-- Unsupported -->
    <g transform="translate(93.56875 310.9925) scale(0.1 -0.1)">
     <use xlink:href="#DejaVuSans-55"/>
     <use xlink:href="#DejaVuSans-6e" transform="translate(73.193359 0)"/>
     <use xlink:href="#DejaVuSans-73" transform="translate(136.572266 0)"/>
     <use xlink:href="#DejaVuSans-75" transform="translate(188.671875 0)"/>
     <use xlink:href="#DejaVuSans-70" transform="translate(252.050781 0)"/>
     <use xlink:href="#DejaVuSans-70" transform="translate(315.527344 0)"/>
     <use xlink:href="#DejaVuSans-6f" transform="translate(379.003906 0)"/>
     <use xlink:href="#DejaVuSans-72" transform="translate(440.185547 0)"/>
     <use xlink:href="#DejaVuSans-74" transform="translate(481.298828 0)"/>
     <use xlink:href="#DejaVuSans-65" transform="translate(520.507812 0)"/>
     <use xlink:href="#DejaVuSans-64" transform="translate(582.03125 0)"/>
    </g>
   </g>
   <g id="text_28">
    <!-- Unsupported -->
    <g transform="translate(93.56875 347.7425) scale(0.1 -0.1)">
     <use xlink:href="#DejaVuSans-55"/>
     <use xlink:href="#DejaVuSans-6e" transform="translate(73.193359 0)"/>
     <use xlink:href="#DejaVuSans-73" transform="translate(136.572266 0)"/>
     <use xlink:href="#DejaVuSans-75" transform="translate(188.671875 0)"/>
     <use xlink:href="#DejaVuSans-70" transform="translate(252.050781 0)"/>
     <use xlink:href="#DejaVuSans-70" transform="translate(315.527344 0)"/>
     <use xlink:href="#DejaVuSans-6f" transform="translate(379.003906 0)"/>
     <use xlink:href="#DejaVuSans-72" transform="translate(440.185547 0)"/>
     <use xlink:href="#DejaVuSans-74" transform="translate(481.298828 0)"/>
     <use xlink:href="#DejaVuSans-65" transform="translate(520.507812 0)"/>
     <use xlink:href="#DejaVuSans-64" transform="translate(582.03125 0)"/>
    </g>
   </g>
   <g id="text_29">
    <!-- Unsupported -->
    <g transform="translate(93.56875 384.4925) scale(0.1 -0.1)">
     <use xlink:href="#DejaVuSans-55"/>
     <use xlink:href="#DejaVuSans-6e" transform="translate(73.193359 0)"/>
     <use xlink:href="#DejaVuSans-73" transform="translate(136.572266 0)"/>
     <use xlink:href="#DejaVuSans-75" transform="translate(188.671875 0)"/>
     <use xlink:href="#DejaVuSans-70" transform="translate(252.050781 0)"/>
     <use xlink:href="#DejaVuSans-70" transform="translate(315.527344 0)"/>
     <use xlink:href="#DejaVuSans-6f" transform="translate(379.003906 0)"/>
     <use xlink:href="#DejaVuSans-72" transform="translate(440.185547 0)"/>
     <use xlink:href="#DejaVuSans-74" transform="translate(481.298828 0)"/>
     <use xlink:href="#DejaVuSans-65" transform="translate(520.507812 0)"/>
     <use xlink:href="#DejaVuSans-64" transform="translate(582.03125 0)"/>
    </g>
   </g>
   <g id="text_30">
    <!-- Log to single file - Sync -->
    <g transform="translate(299.765313 16.318125) scale(0.12 -0.12)">
     <defs>
      <path id="DejaVuSans-4c" d="M 628 4666 
L 1259 4666 
L 1259 531 
L 3531 531 
L 3531 0 
L 628 0 
L 628 4666 
z
" transform="scale(0.015625)"/>
      <path id="DejaVuSans-53" d="M 3425 4513 
L 3425 3897 
Q 3066 4069 2747 4153 
Q 2428 4238 2131 4238 
Q 1616 4238 1336 4038 
Q 1056 3838 1056 3469 
Q 1056 3159 1242 3001 
Q 1428 2844 1947 2747 
L 2328 2669 
Q 3034 2534 3370 2195 
Q 3706 1856 3706 1288 
Q 3706 609 3251 259 
Q 2797 -91 1919 -91 
Q 1588 -91 1214 -16 
Q 841 59 441 206 
L 441 856 
Q 825 641 1194 531 
Q 1563 422 1919 422 
Q 2459 422 2753 634 
Q 3047 847 3047 1241 
Q 3047 1584 2836 1778 
Q 2625 1972 2144 2069 
L 1759 2144 
Q 1053 2284 737 2584 
Q 422 2884 422 3419 
Q 422 4038 858 4394 
Q 1294 4750 2059 4750 
Q 2388 4750 2728 4690 
Q 3069 4631 3425 4513 
z
" transform="scale(0.015625)"/>
      <path id="DejaVuSans-79" d="M 2059 -325 
Q 1816 -950 1584 -1140 
Q 1353 -1331 966 -1331 
L 506 -1331 
L 506 -850 
L 844 -850 
Q 1081 -850 1212 -737 
Q 1344 -625 1503 -206 
L 1606 56 
L 191 3500 
L 800 3500 
L 1894 763 
L 2988 3500 
L 3597 3500 
L 2059 -325 
z
" transform="scale(0.015625)"/>
     </defs>
     <use xlink:href="#DejaVuSans-4c"/>
     <use xlink:href="#DejaVuSans-6f" transform="translate(53.962891 0)"/>
     <use xlink:href="#DejaVuSans-67" transform="translate(115.144531 0)"/>
     <use xlink:href="#DejaVuSans-20" transform="translate(178.621094 0)"/>
     <use xlink:href="#DejaVuSans-74" transform="translate(210.408203 0)"/>
     <use xlink:href="#DejaVuSans-6f" transform="translate(249.617188 0)"/>
     <use xlink:href="#DejaVuSans-20" transform="translate(310.798828 0)"/>
     <use xlink:href="#DejaVuSans-73" transform="translate(342.585938 0)"/>
     <use xlink:href="#DejaVuSans-69" transform="translate(394.685547 0)"/>
     <use xlink:href="#DejaVuSans-6e" transform="translate(422.46875 0)"/>
     <use xlink:href="#DejaVuSans-67" transform="translate(485.847656 0)"/>
     <use xlink:href="#DejaVuSans-6c" transform="translate(549.324219 0)"/>
     <use xlink:href="#DejaVuSans-65" transform="translate(577.107422 0)"/>
     <use xlink:href="#DejaVuSans-20" transform="translate(638.630859 0)"/>
     <use xlink:href="#DejaVuSans-66" transform="translate(670.417969 0)"/>
     <use xlink:href="#DejaVuSans-69" transform="translate(705.623047 0)"/>
     <use xlink:href="#DejaVuSans-6c" transform="translate(733.40625 0)"/>
     <use xlink:href="#DejaVuSans-65" transform="translate(761.189453 0)"/>
     <use xlink:href="#DejaVuSans-20" transform="translate(822.712891 0)"/>
     <use xlink:href="#DejaVuSans-2d" transform="translate(854.5 0)"/>
     <use xlink:href="#DejaVuSans-20" transform="translate(890.583984 0)"/>
     <use xlink:href="#DejaVuSans-53" transform="translate(922.371094 0)"/>
     <use xlink:href="#DejaVuSans-79" transform="translate(985.847656 0)"/>
     <use xlink:href="#DejaVuSans-6e" transform="translate(1045.027344 0)"/>
     <use xlink:href="#DejaVuSans-63" transform="translate(1108.40625 0)"/>
    </g>
   </g>
   <g id="legend_1">
    <g id="patch_17">
     <path d="M 552.821875 53.931875 
L 643.56875 53.931875 
Q 645.56875 53.931875 645.56875 51.931875 
L 645.56875 31.318125 
Q 645.56875 29.318125 643.56875 29.318125 
L 552.821875 29.318125 
Q 550.821875 29.318125 550.821875 31.318125 
L 550.821875 51.931875 
Q 550.821875 53.931875 552.821875 53.931875 
z
" style="fill: #4d4d4d; opacity: 0.5; stroke: #4d4d4d; stroke-linejoin: miter"/>
    </g>
    <g id="patch_18">
     <path d="M 550.821875 51.931875 
L 641.56875 51.931875 
Q 643.56875 51.931875 643.56875 49.931875 
L 643.56875 29.318125 
Q 643.56875 27.318125 641.56875 27.318125 
L 550.821875 27.318125 
Q 548.821875 27.318125 548.821875 29.318125 
L 548.821875 49.931875 
Q 548.821875 51.931875 550.821875 51.931875 
z
" style="fill: #ffffff; stroke: #cccccc; stroke-linejoin: miter"/>
    </g>
    <g id="text_31">
     <!-- lower is better -->
     <g transform="translate(552.821875 40.43625) scale(0.12 -0.12)">
      <defs>
       <path id="DejaVuSans-77" d="M 269 3500 
L 844 3500 
L 1563 769 
L 2278 3500 
L 2956 3500 
L 3675 769 
L 4391 3500 
L 4966 3500 
L 4050 0 
L 3372 0 
L 2619 2869 
L 1863 0 
L 1184 0 
L 269 3500 
z
" transform="scale(0.015625)"/>
      </defs>
      <use xlink:href="#DejaVuSans-6c"/>
      <use xlink:href="#DejaVuSans-6f" transform="translate(27.783203 0)"/>
      <use xlink:href="#DejaVuSans-77" transform="translate(88.964844 0)"/>
      <use xlink:href="#DejaVuSans-65" transform="translate(170.751953 0)"/>
      <use xlink:href="#DejaVuSans-72" transform="translate(232.275391 0)"/>
      <use xlink:href="#DejaVuSans-20" transform="translate(273.388672 0)"/>
      <use xlink:href="#DejaVuSans-69" transform="translate(305.175781 0)"/>
      <use xlink:href="#DejaVuSans-73" transform="translate(332.958984 0)"/>
      <use xlink:href="#DejaVuSans-20" transform="translate(385.058594 0)"/>
      <use xlink:href="#DejaVuSans-62" transform="translate(416.845703 0)"/>
      <use xlink:href="#DejaVuSans-65" transform="translate(480.322266 0)"/>
      <use xlink:href="#DejaVuSans-74" transform="translate(541.845703 0)"/>
      <use xlink:href="#DejaVuSans-74" transform="translate(581.054688 0)"/>
      <use xlink:href="#DejaVuSans-65" transform="translate(620.263672 0)"/>
      <use xlink:href="#DejaVuSans-72" transform="translate(681.787109 0)"/>
     </g>
    </g>
   </g>
  </g>
 </g>
 <defs>
  <clipPath id="p4a058b5574">
   <rect x="90.56875" y="22.318125" width="558" height="388.08"/>
  </clipPath>
 </defs>
</svg>
