<?xml version="1.0" encoding="utf-8" standalone="no"?>
<!DOCTYPE svg PUBLIC "-//W3C//DTD SVG 1.1//EN"
  "http://www.w3.org/Graphics/SVG/1.1/DTD/svg11.dtd">
<svg xmlns:xlink="http://www.w3.org/1999/xlink" width="655.76875pt" height="683.15175pt" viewBox="0 0 655.76875 683.15175" xmlns="http://www.w3.org/2000/svg" version="1.1">
 <metadata>
  <rdf:RDF xmlns:dc="http://purl.org/dc/elements/1.1/" xmlns:cc="http://creativecommons.org/ns#" xmlns:rdf="http://www.w3.org/1999/02/22-rdf-syntax-ns#">
   <cc:Work>
    <dc:type rdf:resource="http://purl.org/dc/dcmitype/StillImage"/>
    <dc:format>image/svg+xml</dc:format>
    <dc:creator>
     <cc:Agent>
      <dc:title>Matplotlib v3.10.6, https://matplotlib.org/</dc:title>
     </cc:Agent>
    </dc:creator>
   </cc:Work>
  </rdf:RDF>
 </metadata>
 <defs>
  <style type="text/css">*{stroke-linejoin: round; stroke-linecap: butt}</style>
 </defs>
 <g id="figure_1">
  <g id="patch_1">
   <path d="M 0 683.15175 
L 655.76875 683.15175 
L 655.76875 -0 
L 0 -0 
z
" style="fill: #ffffff"/>
  </g>
  <g id="axes_1">
   <g id="patch_2">
    <path d="M 90.56875 289.8555 
L 648.56875 289.8555 
L 648.56875 35.7555 
L 90.56875 35.7555 
z
" style="fill: #ffffff"/>
   </g>
   <g id="patch_3">
    <path d="M 90.56875 47.3055 
L 481.206524 47.3055 
L 481.206524 59.791986 
L 90.56875 59.791986 
z
" clip-path="url(#pf1de4d48a9)" style="fill: #1f77b4"/>
   </g>
   <g id="patch_4">
    <path d="M 90.56875 109.737932 
L 552.829341 109.737932 
L 552.829341 122.224419 
L 90.56875 122.224419 
z
" clip-path="url(#pf1de4d48a9)" style="fill: #1f77b4"/>
   </g>
   <g id="patch_5">
    <path d="M 90.56875 172.170365 
L 358.189873 172.170365 
L 358.189873 184.656851 
L 90.56875 184.656851 
z
" clip-path="url(#pf1de4d48a9)" style="fill: #1f77b4"/>
   </g>
   <g id="patch_6">
    <path d="M 90.56875 234.602797 
L 588.864865 234.602797 
L 588.864865 247.089284 
L 90.56875 247.089284 
z
" clip-path="url(#pf1de4d48a9)" style="fill: #1f77b4"/>
   </g>
   <g id="patch_7">
    <path d="M 90.56875 62.913608 
L 481.692392 62.913608 
L 481.692392 75.400095 
L 90.56875 75.400095 
z
" clip-path="url(#pf1de4d48a9)" style="fill: #ff7f0e"/>
   </g>
   <g id="patch_8">
    <path d="M 90.56875 125.346041 
L 553.642194 125.346041 
L 553.642194 137.832527 
L 90.56875 137.832527 
z
" clip-path="url(#pf1de4d48a9)" style="fill: #ff7f0e"/>
   </g>
   <g id="patch_9">
    <path d="M 90.56875 187.778473 
L 329.362414 187.778473 
L 329.362414 200.264959 
L 90.56875 200.264959 
z
" clip-path="url(#pf1de4d48a9)" style="fill: #ff7f0e"/>
   </g>
   <g id="patch_10">
    <path d="M 90.56875 250.210905 
L 597.841477 250.210905 
L 597.841477 262.697392 
L 90.56875 262.697392 
z
" clip-path="url(#pf1de4d48a9)" style="fill: #ff7f0e"/>
   </g>
   <g id="patch_11">
    <path d="M 90.56875 78.521716 
L 492.434015 78.521716 
L 492.434015 91.008203 
L 90.56875 91.008203 
z
" clip-path="url(#pf1de4d48a9)" style="fill: #2ca02c"/>
   </g>
   <g id="patch_12">
    <path d="M 90.56875 140.954149 
L 544.873847 140.954149 
L 544.873847 153.440635 
L 90.56875 153.440635 
z
" clip-path="url(#pf1de4d48a9)" style="fill: #2ca02c"/>
   </g>
   <g id="patch_13">
    <path d="M 90.56875 203.386581 
L 354.445398 203.386581 
L 354.445398 215.873068 
L 90.56875 215.873068 
z
" clip-path="url(#pf1de4d48a9)" style="fill: #2ca02c"/>
   </g>
   <g id="patch_14">
    <path d="M 90.56875 265.819014 
L 579.693629 265.819014 
L 579.693629 278.3055 
L 90.56875 278.3055 
z
" clip-path="url(#pf1de4d48a9)" style="fill: #2ca02c"/>
   </g>
   <g id="matplotlib.axis_1">
    <g id="xtick_1">
     <g id="line2d_1">
      <defs>
       <path id="m7f02fceb46" d="M 0 0 
L 0 3.5 
" style="stroke: #000000; stroke-width: 0.8"/>
      </defs>
      <g>
       <use xlink:href="#m7f02fceb46" x="90.56875" y="289.8555" style="stroke: #000000; stroke-width: 0.8"/>
      </g>
     </g>
     <g id="text_1">
      <!-- 0 -->
      <g transform="translate(87.3875 304.453938) scale(0.1 -0.1)">
       <defs>
        <path id="DejaVuSans-30" d="M 2034 4250 
Q 1547 4250 1301 3770 
Q 1056 3291 1056 2328 
Q 1056 1369 1301 889 
Q 1547 409 2034 409 
Q 2525 409 2770 889 
Q 3016 1369 3016 2328 
Q 3016 3291 2770 3770 
Q 2525 4250 2034 4250 
z
M 2034 4750 
Q 2819 4750 3233 4129 
Q 3647 3509 3647 2328 
Q 3647 1150 3233 529 
Q 2819 -91 2034 -91 
Q 1250 -91 836 529 
Q 422 1150 422 2328 
Q 422 3509 836 4129 
Q 1250 4750 2034 4750 
z
" transform="scale(0.015625)"/>
       </defs>
       <use xlink:href="#DejaVuSans-30"/>
      </g>
     </g>
    </g>
    <g id="xtick_2">
     <g id="line2d_2">
      <g>
       <use xlink:href="#m7f02fceb46" x="153.71762" y="289.8555" style="stroke: #000000; stroke-width: 0.8"/>
      </g>
     </g>
     <g id="text_2">
      <!-- 500000 -->
      <g transform="translate(134.63012 304.453938) scale(0.1 -0.1)">
       <defs>
        <path id="DejaVuSans-35" d="M 691 4666 
L 3169 4666 
L 3169 4134 
L 1269 4134 
L 1269 2991 
Q 1406 3038 1543 3061 
Q 1681 3084 1819 3084 
Q 2600 3084 3056 2656 
Q 3513 2228 3513 1497 
Q 3513 744 3044 326 
Q 2575 -91 1722 -91 
Q 1428 -91 1123 -41 
Q 819 9 494 109 
L 494 744 
Q 775 591 1075 516 
Q 1375 441 1709 441 
Q 2250 441 2565 725 
Q 2881 1009 2881 1497 
Q 2881 1984 2565 2268 
Q 2250 2553 1709 2553 
Q 1456 2553 1204 2497 
Q 953 2441 691 2322 
L 691 4666 
z
" transform="scale(0.015625)"/>
       </defs>
       <use xlink:href="#DejaVuSans-35"/>
       <use xlink:href="#DejaVuSans-30" transform="translate(63.623047 0)"/>
       <use xlink:href="#DejaVuSans-30" transform="translate(127.246094 0)"/>
       <use xlink:href="#DejaVuSans-30" transform="translate(190.869141 0)"/>
       <use xlink:href="#DejaVuSans-30" transform="translate(254.492188 0)"/>
       <use xlink:href="#DejaVuSans-30" transform="translate(318.115234 0)"/>
      </g>
     </g>
    </g>
    <g id="xtick_3">
     <g id="line2d_3">
      <g>
       <use xlink:href="#m7f02fceb46" x="216.86649" y="289.8555" style="stroke: #000000; stroke-width: 0.8"/>
      </g>
     </g>
     <g id="text_3">
      <!-- 1000000 -->
      <g transform="translate(194.59774 304.453938) scale(0.1 -0.1)">
       <defs>
        <path id="DejaVuSans-31" d="M 794 531 
L 1825 531 
L 1825 4091 
L 703 3866 
L 703 4441 
L 1819 4666 
L 2450 4666 
L 2450 531 
L 3481 531 
L 3481 0 
L 794 0 
L 794 531 
z
" transform="scale(0.015625)"/>
       </defs>
       <use xlink:href="#DejaVuSans-31"/>
       <use xlink:href="#DejaVuSans-30" transform="translate(63.623047 0)"/>
       <use xlink:href="#DejaVuSans-30" transform="translate(127.246094 0)"/>
       <use xlink:href="#DejaVuSans-30" transform="translate(190.869141 0)"/>
       <use xlink:href="#DejaVuSans-30" transform="translate(254.492188 0)"/>
       <use xlink:href="#DejaVuSans-30" transform="translate(318.115234 0)"/>
       <use xlink:href="#DejaVuSans-30" transform="translate(381.738281 0)"/>
      </g>
     </g>
    </g>
    <g id="xtick_4">
     <g id="line2d_4">
      <g>
       <use xlink:href="#m7f02fceb46" x="280.015361" y="289.8555" style="stroke: #000000; stroke-width: 0.8"/>
      </g>
     </g>
     <g id="text_4">
      <!-- 1500000 -->
      <g transform="translate(257.746611 304.453938) scale(0.1 -0.1)">
       <use xlink:href="#DejaVuSans-31"/>
       <use xlink:href="#DejaVuSans-35" transform="translate(63.623047 0)"/>
       <use xlink:href="#DejaVuSans-30" transform="translate(127.246094 0)"/>
       <use xlink:href="#DejaVuSans-30" transform="translate(190.869141 0)"/>
       <use xlink:href="#DejaVuSans-30" transform="translate(254.492188 0)"/>
       <use xlink:href="#DejaVuSans-30" transform="translate(318.115234 0)"/>
       <use xlink:href="#DejaVuSans-30" transform="translate(381.738281 0)"/>
      </g>
     </g>
    </g>
    <g id="xtick_5">
     <g id="line2d_5">
      <g>
       <use xlink:href="#m7f02fceb46" x="343.164231" y="289.8555" style="stroke: #000000; stroke-width: 0.8"/>
      </g>
     </g>
     <g id="text_5">
      <!-- 2000000 -->
      <g transform="translate(320.895481 304.453938) scale(0.1 -0.1)">
       <defs>
        <path id="DejaVuSans-32" d="M 1228 531 
L 3431 531 
L 3431 0 
L 469 0 
L 469 531 
Q 828 903 1448 1529 
Q 2069 2156 2228 2338 
Q 2531 2678 2651 2914 
Q 2772 3150 2772 3378 
Q 2772 3750 2511 3984 
Q 2250 4219 1831 4219 
Q 1534 4219 1204 4116 
Q 875 4013 500 3803 
L 500 4441 
Q 881 4594 1212 4672 
Q 1544 4750 1819 4750 
Q 2544 4750 2975 4387 
Q 3406 4025 3406 3419 
Q 3406 3131 3298 2873 
Q 3191 2616 2906 2266 
Q 2828 2175 2409 1742 
Q 1991 1309 1228 531 
z
" transform="scale(0.015625)"/>
       </defs>
       <use xlink:href="#DejaVuSans-32"/>
       <use xlink:href="#DejaVuSans-30" transform="translate(63.623047 0)"/>
       <use xlink:href="#DejaVuSans-30" transform="translate(127.246094 0)"/>
       <use xlink:href="#DejaVuSans-30" transform="translate(190.869141 0)"/>
       <use xlink:href="#DejaVuSans-30" transform="translate(254.492188 0)"/>
       <use xlink:href="#DejaVuSans-30" transform="translate(318.115234 0)"/>
       <use xlink:href="#DejaVuSans-30" transform="translate(381.738281 0)"/>
      </g>
     </g>
    </g>
    <g id="xtick_6">
     <g id="line2d_6">
      <g>
       <use xlink:href="#m7f02fceb46" x="406.313101" y="289.8555" style="stroke: #000000; stroke-width: 0.8"/>
      </g>
     </g>
     <g id="text_6">
      <!-- 2500000 -->
      <g transform="translate(384.044351 304.453938) scale(0.1 -0.1)">
       <use xlink:href="#DejaVuSans-32"/>
       <use xlink:href="#DejaVuSans-35" transform="translate(63.623047 0)"/>
       <use xlink:href="#DejaVuSans-30" transform="translate(127.246094 0)"/>
       <use xlink:href="#DejaVuSans-30" transform="translate(190.869141 0)"/>
       <use xlink:href="#DejaVuSans-30" transform="translate(254.492188 0)"/>
       <use xlink:href="#DejaVuSans-30" transform="translate(318.115234 0)"/>
       <use xlink:href="#DejaVuSans-30" transform="translate(381.738281 0)"/>
      </g>
     </g>
    </g>
    <g id="xtick_7">
     <g id="line2d_7">
      <g>
       <use xlink:href="#m7f02fceb46" x="469.461971" y="289.8555" style="stroke: #000000; stroke-width: 0.8"/>
      </g>
     </g>
     <g id="text_7">
      <!-- 3000000 -->
      <g transform="translate(447.193221 304.453938) scale(0.1 -0.1)">
       <defs>
        <path id="DejaVuSans-33" d="M 2597 2516 
Q 3050 2419 3304 2112 
Q 3559 1806 3559 1356 
Q 3559 666 3084 287 
Q 2609 -91 1734 -91 
Q 1441 -91 1130 -33 
Q 819 25 488 141 
L 488 750 
Q 750 597 1062 519 
Q 1375 441 1716 441 
Q 2309 441 2620 675 
Q 2931 909 2931 1356 
Q 2931 1769 2642 2001 
Q 2353 2234 1838 2234 
L 1294 2234 
L 1294 2753 
L 1863 2753 
Q 2328 2753 2575 2939 
Q 2822 3125 2822 3475 
Q 2822 3834 2567 4026 
Q 2313 4219 1838 4219 
Q 1578 4219 1281 4162 
Q 984 4106 628 3988 
L 628 4550 
Q 988 4650 1302 4700 
Q 1616 4750 1894 4750 
Q 2613 4750 3031 4423 
Q 3450 4097 3450 3541 
Q 3450 3153 3228 2886 
Q 3006 2619 2597 2516 
z
" transform="scale(0.015625)"/>
       </defs>
       <use xlink:href="#DejaVuSans-33"/>
       <use xlink:href="#DejaVuSans-30" transform="translate(63.623047 0)"/>
       <use xlink:href="#DejaVuSans-30" transform="translate(127.246094 0)"/>
       <use xlink:href="#DejaVuSans-30" transform="translate(190.869141 0)"/>
       <use xlink:href="#DejaVuSans-30" transform="translate(254.492188 0)"/>
       <use xlink:href="#DejaVuSans-30" transform="translate(318.115234 0)"/>
       <use xlink:href="#DejaVuSans-30" transform="translate(381.738281 0)"/>
      </g>
     </g>
    </g>
    <g id="xtick_8">
     <g id="line2d_8">
      <g>
       <use xlink:href="#m7f02fceb46" x="532.610841" y="289.8555" style="stroke: #000000; stroke-width: 0.8"/>
      </g>
     </g>
     <g id="text_8">
      <!-- 3500000 -->
      <g transform="translate(510.342091 304.453938) scale(0.1 -0.1)">
       <use xlink:href="#DejaVuSans-33"/>
       <use xlink:href="#DejaVuSans-35" transform="translate(63.623047 0)"/>
       <use xlink:href="#DejaVuSans-30" transform="translate(127.246094 0)"/>
       <use xlink:href="#DejaVuSans-30" transform="translate(190.869141 0)"/>
       <use xlink:href="#DejaVuSans-30" transform="translate(254.492188 0)"/>
       <use xlink:href="#DejaVuSans-30" transform="translate(318.115234 0)"/>
       <use xlink:href="#DejaVuSans-30" transform="translate(381.738281 0)"/>
      </g>
     </g>
    </g>
    <g id="xtick_9">
     <g id="line2d_9">
      <g>
       <use xlink:href="#m7f02fceb46" x="595.759712" y="289.8555" style="stroke: #000000; stroke-width: 0.8"/>
      </g>
     </g>
     <g id="text_9">
      <!-- 4000000 -->
      <g transform="translate(573.490962 304.453938) scale(0.1 -0.1)">
       <defs>
        <path id="DejaVuSans-34" d="M 2419 4116 
L 825 1625 
L 2419 1625 
L 2419 4116 
z
M 2253 4666 
L 3047 4666 
L 3047 1625 
L 3713 1625 
L 3713 1100 
L 3047 1100 
L 3047 0 
L 2419 0 
L 2419 1100 
L 313 1100 
L 313 1709 
L 2253 4666 
z
" transform="scale(0.015625)"/>
       </defs>
       <use xlink:href="#DejaVuSans-34"/>
       <use xlink:href="#DejaVuSans-30" transform="translate(63.623047 0)"/>
       <use xlink:href="#DejaVuSans-30" transform="translate(127.246094 0)"/>
       <use xlink:href="#DejaVuSans-30" transform="translate(190.869141 0)"/>
       <use xlink:href="#DejaVuSans-30" transform="translate(254.492188 0)"/>
       <use xlink:href="#DejaVuSans-30" transform="translate(318.115234 0)"/>
       <use xlink:href="#DejaVuSans-30" transform="translate(381.738281 0)"/>
      </g>
     </g>
    </g>
    <g id="text_10">
     <!-- logs/sec -->
     <g transform="translate(349.226562 318.132063) scale(0.1 -0.1)">
      <defs>
       <path id="DejaVuSans-6c" d="M 603 4863 
L 1178 4863 
L 1178 0 
L 603 0 
L 603 4863 
z
" transform="scale(0.015625)"/>
       <path id="DejaVuSans-6f" d="M 1959 3097 
Q 1497 3097 1228 2736 
Q 959 2375 959 1747 
Q 959 1119 1226 758 
Q 1494 397 1959 397 
Q 2419 397 2687 759 
Q 2956 1122 2956 1747 
Q 2956 2369 2687 2733 
Q 2419 3097 1959 3097 
z
M 1959 3584 
Q 2709 3584 3137 3096 
Q 3566 2609 3566 1747 
Q 3566 888 3137 398 
Q 2709 -91 1959 -91 
Q 1206 -91 779 398 
Q 353 888 353 1747 
Q 353 2609 779 3096 
Q 1206 3584 1959 3584 
z
" transform="scale(0.015625)"/>
       <path id="DejaVuSans-67" d="M 2906 1791 
Q 2906 2416 2648 2759 
Q 2391 3103 1925 3103 
Q 1463 3103 1205 2759 
Q 947 2416 947 1791 
Q 947 1169 1205 825 
Q 1463 481 1925 481 
Q 2391 481 2648 825 
Q 2906 1169 2906 1791 
z
M 3481 434 
Q 3481 -459 3084 -895 
Q 2688 -1331 1869 -1331 
Q 1566 -1331 1297 -1286 
Q 1028 -1241 775 -1147 
L 775 -588 
Q 1028 -725 1275 -790 
Q 1522 -856 1778 -856 
Q 2344 -856 2625 -561 
Q 2906 -266 2906 331 
L 2906 616 
Q 2728 306 2450 153 
Q 2172 0 1784 0 
Q 1141 0 747 490 
Q 353 981 353 1791 
Q 353 2603 747 3093 
Q 1141 3584 1784 3584 
Q 2172 3584 2450 3431 
Q 2728 3278 2906 2969 
L 2906 3500 
L 3481 3500 
L 3481 434 
z
" transform="scale(0.015625)"/>
       <path id="DejaVuSans-73" d="M 2834 3397 
L 2834 2853 
Q 2591 2978 2328 3040 
Q 2066 3103 1784 3103 
Q 1356 3103 1142 2972 
Q 928 2841 928 2578 
Q 928 2378 1081 2264 
Q 1234 2150 1697 2047 
L 1894 2003 
Q 2506 1872 2764 1633 
Q 3022 1394 3022 966 
Q 3022 478 2636 193 
Q 2250 -91 1575 -91 
Q 1294 -91 989 -36 
Q 684 19 347 128 
L 347 722 
Q 666 556 975 473 
Q 1284 391 1588 391 
Q 1994 391 2212 530 
Q 2431 669 2431 922 
Q 2431 1156 2273 1281 
Q 2116 1406 1581 1522 
L 1381 1569 
Q 847 1681 609 1914 
Q 372 2147 372 2553 
Q 372 3047 722 3315 
Q 1072 3584 1716 3584 
Q 2034 3584 2315 3537 
Q 2597 3491 2834 3397 
z
" transform="scale(0.015625)"/>
       <path id="DejaVuSans-2f" d="M 1625 4666 
L 2156 4666 
L 531 -594 
L 0 -594 
L 1625 4666 
z
" transform="scale(0.015625)"/>
       <path id="DejaVuSans-65" d="M 3597 1894 
L 3597 1613 
L 953 1613 
Q 991 1019 1311 708 
Q 1631 397 2203 397 
Q 2534 397 2845 478 
Q 3156 559 3463 722 
L 3463 178 
Q 3153 47 2828 -22 
Q 2503 -91 2169 -91 
Q 1331 -91 842 396 
Q 353 884 353 1716 
Q 353 2575 817 3079 
Q 1281 3584 2069 3584 
Q 2775 3584 3186 3129 
Q 3597 2675 3597 1894 
z
M 3022 2063 
Q 3016 2534 2758 2815 
Q 2500 3097 2075 3097 
Q 1594 3097 1305 2825 
Q 1016 2553 972 2059 
L 3022 2063 
z
" transform="scale(0.015625)"/>
       <path id="DejaVuSans-63" d="M 3122 3366 
L 3122 2828 
Q 2878 2963 2633 3030 
Q 2388 3097 2138 3097 
Q 1578 3097 1268 2742 
Q 959 2388 959 1747 
Q 959 1106 1268 751 
Q 1578 397 2138 397 
Q 2388 397 2633 464 
Q 2878 531 3122 666 
L 3122 134 
Q 2881 22 2623 -34 
Q 2366 -91 2075 -91 
Q 1284 -91 818 406 
Q 353 903 353 1747 
Q 353 2603 823 3093 
Q 1294 3584 2113 3584 
Q 2378 3584 2631 3529 
Q 2884 3475 3122 3366 
z
" transform="scale(0.015625)"/>
      </defs>
      <use xlink:href="#DejaVuSans-6c"/>
      <use xlink:href="#DejaVuSans-6f" transform="translate(27.783203 0)"/>
      <use xlink:href="#DejaVuSans-67" transform="translate(88.964844 0)"/>
      <use xlink:href="#DejaVuSans-73" transform="translate(152.441406 0)"/>
      <use xlink:href="#DejaVuSans-2f" transform="translate(204.541016 0)"/>
      <use xlink:href="#DejaVuSans-73" transform="translate(238.232422 0)"/>
      <use xlink:href="#DejaVuSans-65" transform="translate(290.332031 0)"/>
      <use xlink:href="#DejaVuSans-63" transform="translate(351.855469 0)"/>
     </g>
    </g>
   </g>
   <g id="matplotlib.axis_2">
    <g id="ytick_1">
     <g id="line2d_10">
      <defs>
       <path id="m6b85edcb11" d="M 0 0 
L -3.5 0 
" style="stroke: #000000; stroke-width: 0.8"/>
      </defs>
      <g>
       <use xlink:href="#m6b85edcb11" x="90.56875" y="69.156851" style="stroke: #000000; stroke-width: 0.8"/>
      </g>
     </g>
     <g id="text_11">
      <!-- spdlog-rs -->
      <g style="fill: #ff0000" transform="translate(37.489063 68.117008) scale(0.1 -0.1)">
       <defs>
        <path id="DejaVuSans-70" d="M 1159 525 
L 1159 -1331 
L 581 -1331 
L 581 3500 
L 1159 3500 
L 1159 2969 
Q 1341 3281 1617 3432 
Q 1894 3584 2278 3584 
Q 2916 3584 3314 3078 
Q 3713 2572 3713 1747 
Q 3713 922 3314 415 
Q 2916 -91 2278 -91 
Q 1894 -91 1617 61 
Q 1341 213 1159 525 
z
M 3116 1747 
Q 3116 2381 2855 2742 
Q 2594 3103 2138 3103 
Q 1681 3103 1420 2742 
Q 1159 2381 1159 1747 
Q 1159 1113 1420 752 
Q 1681 391 2138 391 
Q 2594 391 2855 752 
Q 3116 1113 3116 1747 
z
" transform="scale(0.015625)"/>
        <path id="DejaVuSans-64" d="M 2906 2969 
L 2906 4863 
L 3481 4863 
L 3481 0 
L 2906 0 
L 2906 525 
Q 2725 213 2448 61 
Q 2172 -91 1784 -91 
Q 1150 -91 751 415 
Q 353 922 353 1747 
Q 353 2572 751 3078 
Q 1150 3584 1784 3584 
Q 2172 3584 2448 3432 
Q 2725 3281 2906 2969 
z
M 947 1747 
Q 947 1113 1208 752 
Q 1469 391 1925 391 
Q 2381 391 2643 752 
Q 2906 1113 2906 1747 
Q 2906 2381 2643 2742 
Q 2381 3103 1925 3103 
Q 1469 3103 1208 2742 
Q 947 2381 947 1747 
z
" transform="scale(0.015625)"/>
        <path id="DejaVuSans-2d" d="M 313 2009 
L 1997 2009 
L 1997 1497 
L 313 1497 
L 313 2009 
z
" transform="scale(0.015625)"/>
        <path id="DejaVuSans-72" d="M 2631 2963 
Q 2534 3019 2420 3045 
Q 2306 3072 2169 3072 
Q 1681 3072 1420 2755 
Q 1159 2438 1159 1844 
L 1159 0 
L 581 0 
L 581 3500 
L 1159 3500 
L 1159 2956 
Q 1341 3275 1631 3429 
Q 1922 3584 2338 3584 
Q 2397 3584 2469 3576 
Q 2541 3569 2628 3553 
L 2631 2963 
z
" transform="scale(0.015625)"/>
       </defs>
       <use xlink:href="#DejaVuSans-73"/>
       <use xlink:href="#DejaVuSans-70" transform="translate(52.099609 0)"/>
       <use xlink:href="#DejaVuSans-64" transform="translate(115.576172 0)"/>
       <use xlink:href="#DejaVuSans-6c" transform="translate(179.052734 0)"/>
       <use xlink:href="#DejaVuSans-6f" transform="translate(206.835938 0)"/>
       <use xlink:href="#DejaVuSans-67" transform="translate(268.017578 0)"/>
       <use xlink:href="#DejaVuSans-2d" transform="translate(331.494141 0)"/>
       <use xlink:href="#DejaVuSans-72" transform="translate(367.578125 0)"/>
       <use xlink:href="#DejaVuSans-73" transform="translate(408.691406 0)"/>
      </g>
      <!-- 0.5.0 -->
      <g style="fill: #ff0000" transform="translate(58.125 79.31482) scale(0.1 -0.1)">
       <defs>
        <path id="DejaVuSans-2e" d="M 684 794 
L 1344 794 
L 1344 0 
L 684 0 
L 684 794 
z
" transform="scale(0.015625)"/>
       </defs>
       <use xlink:href="#DejaVuSans-30"/>
       <use xlink:href="#DejaVuSans-2e" transform="translate(63.623047 0)"/>
       <use xlink:href="#DejaVuSans-35" transform="translate(95.410156 0)"/>
       <use xlink:href="#DejaVuSans-2e" transform="translate(159.033203 0)"/>
       <use xlink:href="#DejaVuSans-30" transform="translate(190.820312 0)"/>
      </g>
     </g>
    </g>
    <g id="ytick_2">
     <g id="line2d_11">
      <g>
       <use xlink:href="#m6b85edcb11" x="90.56875" y="131.589284" style="stroke: #000000; stroke-width: 0.8"/>
      </g>
     </g>
     <g id="text_12">
      <!-- spdlog-rs -->
      <g style="fill: #ff0000" transform="translate(37.489063 124.950534) scale(0.1 -0.1)">
       <use xlink:href="#DejaVuSans-73"/>
       <use xlink:href="#DejaVuSans-70" transform="translate(52.099609 0)"/>
       <use xlink:href="#DejaVuSans-64" transform="translate(115.576172 0)"/>
       <use xlink:href="#DejaVuSans-6c" transform="translate(179.052734 0)"/>
       <use xlink:href="#DejaVuSans-6f" transform="translate(206.835938 0)"/>
       <use xlink:href="#DejaVuSans-67" transform="translate(268.017578 0)"/>
       <use xlink:href="#DejaVuSans-2d" transform="translate(331.494141 0)"/>
       <use xlink:href="#DejaVuSans-72" transform="translate(367.578125 0)"/>
       <use xlink:href="#DejaVuSans-73" transform="translate(408.691406 0)"/>
      </g>
      <!-- 0.5.0 -->
      <g style="fill: #ff0000" transform="translate(58.125 136.148346) scale(0.1 -0.1)">
       <use xlink:href="#DejaVuSans-30"/>
       <use xlink:href="#DejaVuSans-2e" transform="translate(63.623047 0)"/>
       <use xlink:href="#DejaVuSans-35" transform="translate(95.410156 0)"/>
       <use xlink:href="#DejaVuSans-2e" transform="translate(159.033203 0)"/>
       <use xlink:href="#DejaVuSans-30" transform="translate(190.820312 0)"/>
      </g>
      <!-- (flexible-string) -->
      <g style="fill: #ff0000" transform="translate(7.2 147.346159) scale(0.1 -0.1)">
       <defs>
        <path id="DejaVuSans-28" d="M 1984 4856 
Q 1566 4138 1362 3434 
Q 1159 2731 1159 2009 
Q 1159 1288 1364 580 
Q 1569 -128 1984 -844 
L 1484 -844 
Q 1016 -109 783 600 
Q 550 1309 550 2009 
Q 550 2706 781 3412 
Q 1013 4119 1484 4856 
L 1984 4856 
z
" transform="scale(0.015625)"/>
        <path id="DejaVuSans-66" d="M 2375 4863 
L 2375 4384 
L 1825 4384 
Q 1516 4384 1395 4259 
Q 1275 4134 1275 3809 
L 1275 3500 
L 2222 3500 
L 2222 3053 
L 1275 3053 
L 1275 0 
L 697 0 
L 697 3053 
L 147 3053 
L 147 3500 
L 697 3500 
L 697 3744 
Q 697 4328 969 4595 
Q 1241 4863 1831 4863 
L 2375 4863 
z
" transform="scale(0.015625)"/>
        <path id="DejaVuSans-78" d="M 3513 3500 
L 2247 1797 
L 3578 0 
L 2900 0 
L 1881 1375 
L 863 0 
L 184 0 
L 1544 1831 
L 300 3500 
L 978 3500 
L 1906 2253 
L 2834 3500 
L 3513 3500 
z
" transform="scale(0.015625)"/>
        <path id="DejaVuSans-69" d="M 603 3500 
L 1178 3500 
L 1178 0 
L 603 0 
L 603 3500 
z
M 603 4863 
L 1178 4863 
L 1178 4134 
L 603 4134 
L 603 4863 
z
" transform="scale(0.015625)"/>
        <path id="DejaVuSans-62" d="M 3116 1747 
Q 3116 2381 2855 2742 
Q 2594 3103 2138 3103 
Q 1681 3103 1420 2742 
Q 1159 2381 1159 1747 
Q 1159 1113 1420 752 
Q 1681 391 2138 391 
Q 2594 391 2855 752 
Q 3116 1113 3116 1747 
z
M 1159 2969 
Q 1341 3281 1617 3432 
Q 1894 3584 2278 3584 
Q 2916 3584 3314 3078 
Q 3713 2572 3713 1747 
Q 3713 922 3314 415 
Q 2916 -91 2278 -91 
Q 1894 -91 1617 61 
Q 1341 213 1159 525 
L 1159 0 
L 581 0 
L 581 4863 
L 1159 4863 
L 1159 2969 
z
" transform="scale(0.015625)"/>
        <path id="DejaVuSans-74" d="M 1172 4494 
L 1172 3500 
L 2356 3500 
L 2356 3053 
L 1172 3053 
L 1172 1153 
Q 1172 725 1289 603 
Q 1406 481 1766 481 
L 2356 481 
L 2356 0 
L 1766 0 
Q 1100 0 847 248 
Q 594 497 594 1153 
L 594 3053 
L 172 3053 
L 172 3500 
L 594 3500 
L 594 4494 
L 1172 4494 
z
" transform="scale(0.015625)"/>
        <path id="DejaVuSans-6e" d="M 3513 2113 
L 3513 0 
L 2938 0 
L 2938 2094 
Q 2938 2591 2744 2837 
Q 2550 3084 2163 3084 
Q 1697 3084 1428 2787 
Q 1159 2491 1159 1978 
L 1159 0 
L 581 0 
L 581 3500 
L 1159 3500 
L 1159 2956 
Q 1366 3272 1645 3428 
Q 1925 3584 2291 3584 
Q 2894 3584 3203 3211 
Q 3513 2838 3513 2113 
z
" transform="scale(0.015625)"/>
        <path id="DejaVuSans-29" d="M 513 4856 
L 1013 4856 
Q 1481 4119 1714 3412 
Q 1947 2706 1947 2009 
Q 1947 1309 1714 600 
Q 1481 -109 1013 -844 
L 513 -844 
Q 928 -128 1133 580 
Q 1338 1288 1338 2009 
Q 1338 2731 1133 3434 
Q 928 4138 513 4856 
z
" transform="scale(0.015625)"/>
       </defs>
       <use xlink:href="#DejaVuSans-28"/>
       <use xlink:href="#DejaVuSans-66" transform="translate(39.013672 0)"/>
       <use xlink:href="#DejaVuSans-6c" transform="translate(74.21875 0)"/>
       <use xlink:href="#DejaVuSans-65" transform="translate(102.001953 0)"/>
       <use xlink:href="#DejaVuSans-78" transform="translate(161.775391 0)"/>
       <use xlink:href="#DejaVuSans-69" transform="translate(220.955078 0)"/>
       <use xlink:href="#DejaVuSans-62" transform="translate(248.738281 0)"/>
       <use xlink:href="#DejaVuSans-6c" transform="translate(312.214844 0)"/>
       <use xlink:href="#DejaVuSans-65" transform="translate(339.998047 0)"/>
       <use xlink:href="#DejaVuSans-2d" transform="translate(401.521484 0)"/>
       <use xlink:href="#DejaVuSans-73" transform="translate(437.605469 0)"/>
       <use xlink:href="#DejaVuSans-74" transform="translate(489.705078 0)"/>
       <use xlink:href="#DejaVuSans-72" transform="translate(528.914062 0)"/>
       <use xlink:href="#DejaVuSans-69" transform="translate(570.027344 0)"/>
       <use xlink:href="#DejaVuSans-6e" transform="translate(597.810547 0)"/>
       <use xlink:href="#DejaVuSans-67" transform="translate(661.189453 0)"/>
       <use xlink:href="#DejaVuSans-29" transform="translate(724.666016 0)"/>
      </g>
     </g>
    </g>
    <g id="ytick_3">
     <g id="line2d_12">
      <g>
       <use xlink:href="#m6b85edcb11" x="90.56875" y="194.021716" style="stroke: #000000; stroke-width: 0.8"/>
      </g>
     </g>
     <g id="text_13">
      <!-- C++ spdlog -->
      <g transform="translate(23.496875 187.382966) scale(0.1 -0.1)">
       <defs>
        <path id="DejaVuSans-43" d="M 4122 4306 
L 4122 3641 
Q 3803 3938 3442 4084 
Q 3081 4231 2675 4231 
Q 1875 4231 1450 3742 
Q 1025 3253 1025 2328 
Q 1025 1406 1450 917 
Q 1875 428 2675 428 
Q 3081 428 3442 575 
Q 3803 722 4122 1019 
L 4122 359 
Q 3791 134 3420 21 
Q 3050 -91 2638 -91 
Q 1578 -91 968 557 
Q 359 1206 359 2328 
Q 359 3453 968 4101 
Q 1578 4750 2638 4750 
Q 3056 4750 3426 4639 
Q 3797 4528 4122 4306 
z
" transform="scale(0.015625)"/>
        <path id="DejaVuSans-2b" d="M 2944 4013 
L 2944 2272 
L 4684 2272 
L 4684 1741 
L 2944 1741 
L 2944 0 
L 2419 0 
L 2419 1741 
L 678 1741 
L 678 2272 
L 2419 2272 
L 2419 4013 
L 2944 4013 
z
" transform="scale(0.015625)"/>
        <path id="DejaVuSans-20" transform="scale(0.015625)"/>
       </defs>
       <use xlink:href="#DejaVuSans-43"/>
       <use xlink:href="#DejaVuSans-2b" transform="translate(69.824219 0)"/>
       <use xlink:href="#DejaVuSans-2b" transform="translate(153.613281 0)"/>
       <use xlink:href="#DejaVuSans-20" transform="translate(237.402344 0)"/>
       <use xlink:href="#DejaVuSans-73" transform="translate(269.189453 0)"/>
       <use xlink:href="#DejaVuSans-70" transform="translate(321.289062 0)"/>
       <use xlink:href="#DejaVuSans-64" transform="translate(384.765625 0)"/>
       <use xlink:href="#DejaVuSans-6c" transform="translate(448.242188 0)"/>
       <use xlink:href="#DejaVuSans-6f" transform="translate(476.025391 0)"/>
       <use xlink:href="#DejaVuSans-67" transform="translate(537.207031 0)"/>
      </g>
      <!-- 1.15.3 -->
      <g transform="translate(51.7625 198.580779) scale(0.1 -0.1)">
       <use xlink:href="#DejaVuSans-31"/>
       <use xlink:href="#DejaVuSans-2e" transform="translate(63.623047 0)"/>
       <use xlink:href="#DejaVuSans-31" transform="translate(95.410156 0)"/>
       <use xlink:href="#DejaVuSans-35" transform="translate(159.033203 0)"/>
       <use xlink:href="#DejaVuSans-2e" transform="translate(222.65625 0)"/>
       <use xlink:href="#DejaVuSans-33" transform="translate(254.443359 0)"/>
      </g>
      <!-- (std-format) -->
      <g transform="translate(23.315625 209.778591) scale(0.1 -0.1)">
       <defs>
        <path id="DejaVuSans-6d" d="M 3328 2828 
Q 3544 3216 3844 3400 
Q 4144 3584 4550 3584 
Q 5097 3584 5394 3201 
Q 5691 2819 5691 2113 
L 5691 0 
L 5113 0 
L 5113 2094 
Q 5113 2597 4934 2840 
Q 4756 3084 4391 3084 
Q 3944 3084 3684 2787 
Q 3425 2491 3425 1978 
L 3425 0 
L 2847 0 
L 2847 2094 
Q 2847 2600 2669 2842 
Q 2491 3084 2119 3084 
Q 1678 3084 1418 2786 
Q 1159 2488 1159 1978 
L 1159 0 
L 581 0 
L 581 3500 
L 1159 3500 
L 1159 2956 
Q 1356 3278 1631 3431 
Q 1906 3584 2284 3584 
Q 2666 3584 2933 3390 
Q 3200 3197 3328 2828 
z
" transform="scale(0.015625)"/>
        <path id="DejaVuSans-61" d="M 2194 1759 
Q 1497 1759 1228 1600 
Q 959 1441 959 1056 
Q 959 750 1161 570 
Q 1363 391 1709 391 
Q 2188 391 2477 730 
Q 2766 1069 2766 1631 
L 2766 1759 
L 2194 1759 
z
M 3341 1997 
L 3341 0 
L 2766 0 
L 2766 531 
Q 2569 213 2275 61 
Q 1981 -91 1556 -91 
Q 1019 -91 701 211 
Q 384 513 384 1019 
Q 384 1609 779 1909 
Q 1175 2209 1959 2209 
L 2766 2209 
L 2766 2266 
Q 2766 2663 2505 2880 
Q 2244 3097 1772 3097 
Q 1472 3097 1187 3025 
Q 903 2953 641 2809 
L 641 3341 
Q 956 3463 1253 3523 
Q 1550 3584 1831 3584 
Q 2591 3584 2966 3190 
Q 3341 2797 3341 1997 
z
" transform="scale(0.015625)"/>
       </defs>
       <use xlink:href="#DejaVuSans-28"/>
       <use xlink:href="#DejaVuSans-73" transform="translate(39.013672 0)"/>
       <use xlink:href="#DejaVuSans-74" transform="translate(91.113281 0)"/>
       <use xlink:href="#DejaVuSans-64" transform="translate(130.322266 0)"/>
       <use xlink:href="#DejaVuSans-2d" transform="translate(193.798828 0)"/>
       <use xlink:href="#DejaVuSans-66" transform="translate(229.882812 0)"/>
       <use xlink:href="#DejaVuSans-6f" transform="translate(265.087891 0)"/>
       <use xlink:href="#DejaVuSans-72" transform="translate(326.269531 0)"/>
       <use xlink:href="#DejaVuSans-6d" transform="translate(365.632812 0)"/>
       <use xlink:href="#DejaVuSans-61" transform="translate(463.044922 0)"/>
       <use xlink:href="#DejaVuSans-74" transform="translate(524.324219 0)"/>
       <use xlink:href="#DejaVuSans-29" transform="translate(563.533203 0)"/>
      </g>
     </g>
    </g>
    <g id="ytick_4">
     <g id="line2d_13">
      <g>
       <use xlink:href="#m6b85edcb11" x="90.56875" y="256.454149" style="stroke: #000000; stroke-width: 0.8"/>
      </g>
     </g>
     <g id="text_14">
      <!-- C++ spdlog -->
      <g transform="translate(23.496875 249.815399) scale(0.1 -0.1)">
       <use xlink:href="#DejaVuSans-43"/>
       <use xlink:href="#DejaVuSans-2b" transform="translate(69.824219 0)"/>
       <use xlink:href="#DejaVuSans-2b" transform="translate(153.613281 0)"/>
       <use xlink:href="#DejaVuSans-20" transform="translate(237.402344 0)"/>
       <use xlink:href="#DejaVuSans-73" transform="translate(269.189453 0)"/>
       <use xlink:href="#DejaVuSans-70" transform="translate(321.289062 0)"/>
       <use xlink:href="#DejaVuSans-64" transform="translate(384.765625 0)"/>
       <use xlink:href="#DejaVuSans-6c" transform="translate(448.242188 0)"/>
       <use xlink:href="#DejaVuSans-6f" transform="translate(476.025391 0)"/>
       <use xlink:href="#DejaVuSans-67" transform="translate(537.207031 0)"/>
      </g>
      <!-- 1.15.3 -->
      <g transform="translate(51.7625 261.013211) scale(0.1 -0.1)">
       <use xlink:href="#DejaVuSans-31"/>
       <use xlink:href="#DejaVuSans-2e" transform="translate(63.623047 0)"/>
       <use xlink:href="#DejaVuSans-31" transform="translate(95.410156 0)"/>
       <use xlink:href="#DejaVuSans-35" transform="translate(159.033203 0)"/>
       <use xlink:href="#DejaVuSans-2e" transform="translate(222.65625 0)"/>
       <use xlink:href="#DejaVuSans-33" transform="translate(254.443359 0)"/>
      </g>
      <!-- (fmt) -->
      <g transform="translate(58.584375 272.211024) scale(0.1 -0.1)">
       <use xlink:href="#DejaVuSans-28"/>
       <use xlink:href="#DejaVuSans-66" transform="translate(39.013672 0)"/>
       <use xlink:href="#DejaVuSans-6d" transform="translate(74.21875 0)"/>
       <use xlink:href="#DejaVuSans-74" transform="translate(171.630859 0)"/>
       <use xlink:href="#DejaVuSans-29" transform="translate(210.839844 0)"/>
      </g>
     </g>
    </g>
   </g>
   <g id="patch_15">
    <path d="M 90.56875 289.8555 
L 90.56875 35.7555 
" style="fill: none; stroke: #000000; stroke-width: 0.8; stroke-linejoin: miter; stroke-linecap: square"/>
   </g>
   <g id="patch_16">
    <path d="M 648.56875 289.8555 
L 648.56875 35.7555 
" style="fill: none; stroke: #000000; stroke-width: 0.8; stroke-linejoin: miter; stroke-linecap: square"/>
   </g>
   <g id="patch_17">
    <path d="M 90.56875 289.8555 
L 648.56875 289.8555 
" style="fill: none; stroke: #000000; stroke-width: 0.8; stroke-linejoin: miter; stroke-linecap: square"/>
   </g>
   <g id="patch_18">
    <path d="M 90.56875 35.7555 
L 648.56875 35.7555 
" style="fill: none; stroke: #000000; stroke-width: 0.8; stroke-linejoin: miter; stroke-linecap: square"/>
   </g>
   <g id="text_15">
    <!-- 3092991 -->
    <g transform="translate(484.206524 56.308118) scale(0.1 -0.1)">
     <defs>
      <path id="DejaVuSans-39" d="M 703 97 
L 703 672 
Q 941 559 1184 500 
Q 1428 441 1663 441 
Q 2288 441 2617 861 
Q 2947 1281 2994 2138 
Q 2813 1869 2534 1725 
Q 2256 1581 1919 1581 
Q 1219 1581 811 2004 
Q 403 2428 403 3163 
Q 403 3881 828 4315 
Q 1253 4750 1959 4750 
Q 2769 4750 3195 4129 
Q 3622 3509 3622 2328 
Q 3622 1225 3098 567 
Q 2575 -91 1691 -91 
Q 1453 -91 1209 -44 
Q 966 3 703 97 
z
M 1959 2075 
Q 2384 2075 2632 2365 
Q 2881 2656 2881 3163 
Q 2881 3666 2632 3958 
Q 2384 4250 1959 4250 
Q 1534 4250 1286 3958 
Q 1038 3666 1038 3163 
Q 1038 2656 1286 2365 
Q 1534 2075 1959 2075 
z
" transform="scale(0.015625)"/>
     </defs>
     <use xlink:href="#DejaVuSans-33"/>
     <use xlink:href="#DejaVuSans-30" transform="translate(63.623047 0)"/>
     <use xlink:href="#DejaVuSans-39" transform="translate(127.246094 0)"/>
     <use xlink:href="#DejaVuSans-32" transform="translate(190.869141 0)"/>
     <use xlink:href="#DejaVuSans-39" transform="translate(254.492188 0)"/>
     <use xlink:href="#DejaVuSans-39" transform="translate(318.115234 0)"/>
     <use xlink:href="#DejaVuSans-31" transform="translate(381.738281 0)"/>
    </g>
   </g>
   <g id="text_16">
    <!-- 3660086 -->
    <g transform="translate(555.829341 118.740551) scale(0.1 -0.1)">
     <defs>
      <path id="DejaVuSans-36" d="M 2113 2584 
Q 1688 2584 1439 2293 
Q 1191 2003 1191 1497 
Q 1191 994 1439 701 
Q 1688 409 2113 409 
Q 2538 409 2786 701 
Q 3034 994 3034 1497 
Q 3034 2003 2786 2293 
Q 2538 2584 2113 2584 
z
M 3366 4563 
L 3366 3988 
Q 3128 4100 2886 4159 
Q 2644 4219 2406 4219 
Q 1781 4219 1451 3797 
Q 1122 3375 1075 2522 
Q 1259 2794 1537 2939 
Q 1816 3084 2150 3084 
Q 2853 3084 3261 2657 
Q 3669 2231 3669 1497 
Q 3669 778 3244 343 
Q 2819 -91 2113 -91 
Q 1303 -91 875 529 
Q 447 1150 447 2328 
Q 447 3434 972 4092 
Q 1497 4750 2381 4750 
Q 2619 4750 2861 4703 
Q 3103 4656 3366 4563 
z
" transform="scale(0.015625)"/>
      <path id="DejaVuSans-38" d="M 2034 2216 
Q 1584 2216 1326 1975 
Q 1069 1734 1069 1313 
Q 1069 891 1326 650 
Q 1584 409 2034 409 
Q 2484 409 2743 651 
Q 3003 894 3003 1313 
Q 3003 1734 2745 1975 
Q 2488 2216 2034 2216 
z
M 1403 2484 
Q 997 2584 770 2862 
Q 544 3141 544 3541 
Q 544 4100 942 4425 
Q 1341 4750 2034 4750 
Q 2731 4750 3128 4425 
Q 3525 4100 3525 3541 
Q 3525 3141 3298 2862 
Q 3072 2584 2669 2484 
Q 3125 2378 3379 2068 
Q 3634 1759 3634 1313 
Q 3634 634 3220 271 
Q 2806 -91 2034 -91 
Q 1263 -91 848 271 
Q 434 634 434 1313 
Q 434 1759 690 2068 
Q 947 2378 1403 2484 
z
M 1172 3481 
Q 1172 3119 1398 2916 
Q 1625 2713 2034 2713 
Q 2441 2713 2670 2916 
Q 2900 3119 2900 3481 
Q 2900 3844 2670 4047 
Q 2441 4250 2034 4250 
Q 1625 4250 1398 4047 
Q 1172 3844 1172 3481 
z
" transform="scale(0.015625)"/>
     </defs>
     <use xlink:href="#DejaVuSans-33"/>
     <use xlink:href="#DejaVuSans-36" transform="translate(63.623047 0)"/>
     <use xlink:href="#DejaVuSans-36" transform="translate(127.246094 0)"/>
     <use xlink:href="#DejaVuSans-30" transform="translate(190.869141 0)"/>
     <use xlink:href="#DejaVuSans-30" transform="translate(254.492188 0)"/>
     <use xlink:href="#DejaVuSans-38" transform="translate(318.115234 0)"/>
     <use xlink:href="#DejaVuSans-36" transform="translate(381.738281 0)"/>
    </g>
   </g>
   <g id="text_17">
    <!-- 2118970 -->
    <g transform="translate(361.189873 181.172983) scale(0.1 -0.1)">
     <defs>
      <path id="DejaVuSans-37" d="M 525 4666 
L 3525 4666 
L 3525 4397 
L 1831 0 
L 1172 0 
L 2766 4134 
L 525 4134 
L 525 4666 
z
" transform="scale(0.015625)"/>
     </defs>
     <use xlink:href="#DejaVuSans-32"/>
     <use xlink:href="#DejaVuSans-31" transform="translate(63.623047 0)"/>
     <use xlink:href="#DejaVuSans-31" transform="translate(127.246094 0)"/>
     <use xlink:href="#DejaVuSans-38" transform="translate(190.869141 0)"/>
     <use xlink:href="#DejaVuSans-39" transform="translate(254.492188 0)"/>
     <use xlink:href="#DejaVuSans-37" transform="translate(318.115234 0)"/>
     <use xlink:href="#DejaVuSans-30" transform="translate(381.738281 0)"/>
    </g>
   </g>
   <g id="text_18">
    <!-- 3945408 -->
    <g transform="translate(591.864865 243.605416) scale(0.1 -0.1)">
     <use xlink:href="#DejaVuSans-33"/>
     <use xlink:href="#DejaVuSans-39" transform="translate(63.623047 0)"/>
     <use xlink:href="#DejaVuSans-34" transform="translate(127.246094 0)"/>
     <use xlink:href="#DejaVuSans-35" transform="translate(190.869141 0)"/>
     <use xlink:href="#DejaVuSans-34" transform="translate(254.492188 0)"/>
     <use xlink:href="#DejaVuSans-30" transform="translate(318.115234 0)"/>
     <use xlink:href="#DejaVuSans-38" transform="translate(381.738281 0)"/>
    </g>
   </g>
   <g id="text_19">
    <!-- 3096838 -->
    <g transform="translate(484.692392 71.916226) scale(0.1 -0.1)">
     <use xlink:href="#DejaVuSans-33"/>
     <use xlink:href="#DejaVuSans-30" transform="translate(63.623047 0)"/>
     <use xlink:href="#DejaVuSans-39" transform="translate(127.246094 0)"/>
     <use xlink:href="#DejaVuSans-36" transform="translate(190.869141 0)"/>
     <use xlink:href="#DejaVuSans-38" transform="translate(254.492188 0)"/>
     <use xlink:href="#DejaVuSans-33" transform="translate(318.115234 0)"/>
     <use xlink:href="#DejaVuSans-38" transform="translate(381.738281 0)"/>
    </g>
   </g>
   <g id="text_20">
    <!-- 3666522 -->
    <g transform="translate(556.642194 134.348659) scale(0.1 -0.1)">
     <use xlink:href="#DejaVuSans-33"/>
     <use xlink:href="#DejaVuSans-36" transform="translate(63.623047 0)"/>
     <use xlink:href="#DejaVuSans-36" transform="translate(127.246094 0)"/>
     <use xlink:href="#DejaVuSans-36" transform="translate(190.869141 0)"/>
     <use xlink:href="#DejaVuSans-35" transform="translate(254.492188 0)"/>
     <use xlink:href="#DejaVuSans-32" transform="translate(318.115234 0)"/>
     <use xlink:href="#DejaVuSans-32" transform="translate(381.738281 0)"/>
    </g>
   </g>
   <g id="text_21">
    <!-- 1890720 -->
    <g transform="translate(332.362414 196.781091) scale(0.1 -0.1)">
     <use xlink:href="#DejaVuSans-31"/>
     <use xlink:href="#DejaVuSans-38" transform="translate(63.623047 0)"/>
     <use xlink:href="#DejaVuSans-39" transform="translate(127.246094 0)"/>
     <use xlink:href="#DejaVuSans-30" transform="translate(190.869141 0)"/>
     <use xlink:href="#DejaVuSans-37" transform="translate(254.492188 0)"/>
     <use xlink:href="#DejaVuSans-32" transform="translate(318.115234 0)"/>
     <use xlink:href="#DejaVuSans-30" transform="translate(381.738281 0)"/>
    </g>
   </g>
   <g id="text_22">
    <!-- 4016483 -->
    <g transform="translate(600.841477 259.213524) scale(0.1 -0.1)">
     <use xlink:href="#DejaVuSans-34"/>
     <use xlink:href="#DejaVuSans-30" transform="translate(63.623047 0)"/>
     <use xlink:href="#DejaVuSans-31" transform="translate(127.246094 0)"/>
     <use xlink:href="#DejaVuSans-36" transform="translate(190.869141 0)"/>
     <use xlink:href="#DejaVuSans-34" transform="translate(254.492188 0)"/>
     <use xlink:href="#DejaVuSans-38" transform="translate(318.115234 0)"/>
     <use xlink:href="#DejaVuSans-33" transform="translate(381.738281 0)"/>
    </g>
   </g>
   <g id="text_23">
    <!-- 3181888 -->
    <g transform="translate(495.434015 87.524334) scale(0.1 -0.1)">
     <use xlink:href="#DejaVuSans-33"/>
     <use xlink:href="#DejaVuSans-31" transform="translate(63.623047 0)"/>
     <use xlink:href="#DejaVuSans-38" transform="translate(127.246094 0)"/>
     <use xlink:href="#DejaVuSans-31" transform="translate(190.869141 0)"/>
     <use xlink:href="#DejaVuSans-38" transform="translate(254.492188 0)"/>
     <use xlink:href="#DejaVuSans-38" transform="translate(318.115234 0)"/>
     <use xlink:href="#DejaVuSans-38" transform="translate(381.738281 0)"/>
    </g>
   </g>
   <g id="text_24">
    <!-- 3597096 -->
    <g transform="translate(547.873847 149.956767) scale(0.1 -0.1)">
     <use xlink:href="#DejaVuSans-33"/>
     <use xlink:href="#DejaVuSans-35" transform="translate(63.623047 0)"/>
     <use xlink:href="#DejaVuSans-39" transform="translate(127.246094 0)"/>
     <use xlink:href="#DejaVuSans-37" transform="translate(190.869141 0)"/>
     <use xlink:href="#DejaVuSans-30" transform="translate(254.492188 0)"/>
     <use xlink:href="#DejaVuSans-39" transform="translate(318.115234 0)"/>
     <use xlink:href="#DejaVuSans-36" transform="translate(381.738281 0)"/>
    </g>
   </g>
   <g id="text_25">
    <!-- 2089322 -->
    <g transform="translate(357.445398 212.389199) scale(0.1 -0.1)">
     <use xlink:href="#DejaVuSans-32"/>
     <use xlink:href="#DejaVuSans-30" transform="translate(63.623047 0)"/>
     <use xlink:href="#DejaVuSans-38" transform="translate(127.246094 0)"/>
     <use xlink:href="#DejaVuSans-39" transform="translate(190.869141 0)"/>
     <use xlink:href="#DejaVuSans-33" transform="translate(254.492188 0)"/>
     <use xlink:href="#DejaVuSans-32" transform="translate(318.115234 0)"/>
     <use xlink:href="#DejaVuSans-32" transform="translate(381.738281 0)"/>
    </g>
   </g>
   <g id="text_26">
    <!-- 3872792 -->
    <g transform="translate(582.693629 274.821632) scale(0.1 -0.1)">
     <use xlink:href="#DejaVuSans-33"/>
     <use xlink:href="#DejaVuSans-38" transform="translate(63.623047 0)"/>
     <use xlink:href="#DejaVuSans-37" transform="translate(127.246094 0)"/>
     <use xlink:href="#DejaVuSans-32" transform="translate(190.869141 0)"/>
     <use xlink:href="#DejaVuSans-37" transform="translate(254.492188 0)"/>
     <use xlink:href="#DejaVuSans-39" transform="translate(318.115234 0)"/>
     <use xlink:href="#DejaVuSans-32" transform="translate(381.738281 0)"/>
    </g>
   </g>
   <g id="text_27">
    <!-- spdlog-rs vs C++ spdlog -->
    <g transform="translate(295.387188 16.318125) scale(0.12 -0.12)">
     <defs>
      <path id="DejaVuSans-76" d="M 191 3500 
L 800 3500 
L 1894 563 
L 2988 3500 
L 3597 3500 
L 2284 0 
L 1503 0 
L 191 3500 
z
" transform="scale(0.015625)"/>
     </defs>
     <use xlink:href="#DejaVuSans-73"/>
     <use xlink:href="#DejaVuSans-70" transform="translate(52.099609 0)"/>
     <use xlink:href="#DejaVuSans-64" transform="translate(115.576172 0)"/>
     <use xlink:href="#DejaVuSans-6c" transform="translate(179.052734 0)"/>
     <use xlink:href="#DejaVuSans-6f" transform="translate(206.835938 0)"/>
     <use xlink:href="#DejaVuSans-67" transform="translate(268.017578 0)"/>
     <use xlink:href="#DejaVuSans-2d" transform="translate(331.494141 0)"/>
     <use xlink:href="#DejaVuSans-72" transform="translate(367.578125 0)"/>
     <use xlink:href="#DejaVuSans-73" transform="translate(408.691406 0)"/>
     <use xlink:href="#DejaVuSans-20" transform="translate(460.791016 0)"/>
     <use xlink:href="#DejaVuSans-76" transform="translate(492.578125 0)"/>
     <use xlink:href="#DejaVuSans-73" transform="translate(551.757812 0)"/>
     <use xlink:href="#DejaVuSans-20" transform="translate(603.857422 0)"/>
     <use xlink:href="#DejaVuSans-43" transform="translate(635.644531 0)"/>
     <use xlink:href="#DejaVuSans-2b" transform="translate(705.46875 0)"/>
     <use xlink:href="#DejaVuSans-2b" transform="translate(789.257812 0)"/>
     <use xlink:href="#DejaVuSans-20" transform="translate(873.046875 0)"/>
     <use xlink:href="#DejaVuSans-73" transform="translate(904.833984 0)"/>
     <use xlink:href="#DejaVuSans-70" transform="translate(956.933594 0)"/>
     <use xlink:href="#DejaVuSans-64" transform="translate(1020.410156 0)"/>
     <use xlink:href="#DejaVuSans-6c" transform="translate(1083.886719 0)"/>
     <use xlink:href="#DejaVuSans-6f" transform="translate(1111.669922 0)"/>
     <use xlink:href="#DejaVuSans-67" transform="translate(1172.851562 0)"/>
    </g>
    <!-- Sync, 1 threads, 250000 messages -->
    <g transform="translate(264.0625 29.7555) scale(0.12 -0.12)">
     <defs>
      <path id="DejaVuSans-53" d="M 3425 4513 
L 3425 3897 
Q 3066 4069 2747 4153 
Q 2428 4238 2131 4238 
Q 1616 4238 1336 4038 
Q 1056 3838 1056 3469 
Q 1056 3159 1242 3001 
Q 1428 2844 1947 2747 
L 2328 2669 
Q 3034 2534 3370 2195 
Q 3706 1856 3706 1288 
Q 3706 609 3251 259 
Q 2797 -91 1919 -91 
Q 1588 -91 1214 -16 
Q 841 59 441 206 
L 441 856 
Q 825 641 1194 531 
Q 1563 422 1919 422 
Q 2459 422 2753 634 
Q 3047 847 3047 1241 
Q 3047 1584 2836 1778 
Q 2625 1972 2144 2069 
L 1759 2144 
Q 1053 2284 737 2584 
Q 422 2884 422 3419 
Q 422 4038 858 4394 
Q 1294 4750 2059 4750 
Q 2388 4750 2728 4690 
Q 3069 4631 3425 4513 
z
" transform="scale(0.015625)"/>
      <path id="DejaVuSans-79" d="M 2059 -325 
Q 1816 -950 1584 -1140 
Q 1353 -1331 966 -1331 
L 506 -1331 
L 506 -850 
L 844 -850 
Q 1081 -850 1212 -737 
Q 1344 -625 1503 -206 
L 1606 56 
L 191 3500 
L 800 3500 
L 1894 763 
L 2988 3500 
L 3597 3500 
L 2059 -325 
z
" transform="scale(0.015625)"/>
      <path id="DejaVuSans-2c" d="M 750 794 
L 1409 794 
L 1409 256 
L 897 -744 
L 494 -744 
L 750 256 
L 750 794 
z
" transform="scale(0.015625)"/>
      <path id="DejaVuSans-68" d="M 3513 2113 
L 3513 0 
L 2938 0 
L 2938 2094 
Q 2938 2591 2744 2837 
Q 2550 3084 2163 3084 
Q 1697 3084 1428 2787 
Q 1159 2491 1159 1978 
L 1159 0 
L 581 0 
L 581 4863 
L 1159 4863 
L 1159 2956 
Q 1366 3272 1645 3428 
Q 1925 3584 2291 3584 
Q 2894 3584 3203 3211 
Q 3513 2838 3513 2113 
z
" transform="scale(0.015625)"/>
     </defs>
     <use xlink:href="#DejaVuSans-53"/>
     <use xlink:href="#DejaVuSans-79" transform="translate(63.476562 0)"/>
     <use xlink:href="#DejaVuSans-6e" transform="translate(122.65625 0)"/>
     <use xlink:href="#DejaVuSans-63" transform="translate(186.035156 0)"/>
     <use xlink:href="#DejaVuSans-2c" transform="translate(241.015625 0)"/>
     <use xlink:href="#DejaVuSans-20" transform="translate(272.802734 0)"/>
     <use xlink:href="#DejaVuSans-31" transform="translate(304.589844 0)"/>
     <use xlink:href="#DejaVuSans-20" transform="translate(368.212891 0)"/>
     <use xlink:href="#DejaVuSans-74" transform="translate(400 0)"/>
     <use xlink:href="#DejaVuSans-68" transform="translate(439.208984 0)"/>
     <use xlink:href="#DejaVuSans-72" transform="translate(502.587891 0)"/>
     <use xlink:href="#DejaVuSans-65" transform="translate(541.451172 0)"/>
     <use xlink:href="#DejaVuSans-61" transform="translate(602.974609 0)"/>
     <use xlink:href="#DejaVuSans-64" transform="translate(664.253906 0)"/>
     <use xlink:href="#DejaVuSans-73" transform="translate(727.730469 0)"/>
     <use xlink:href="#DejaVuSans-2c" transform="translate(779.830078 0)"/>
     <use xlink:href="#DejaVuSans-20" transform="translate(811.617188 0)"/>
     <use xlink:href="#DejaVuSans-32" transform="translate(843.404297 0)"/>
     <use xlink:href="#DejaVuSans-35" transform="translate(907.027344 0)"/>
     <use xlink:href="#DejaVuSans-30" transform="translate(970.650391 0)"/>
     <use xlink:href="#DejaVuSans-30" transform="translate(1034.273438 0)"/>
     <use xlink:href="#DejaVuSans-30" transform="translate(1097.896484 0)"/>
     <use xlink:href="#DejaVuSans-30" transform="translate(1161.519531 0)"/>
     <use xlink:href="#DejaVuSans-20" transform="translate(1225.142578 0)"/>
     <use xlink:href="#DejaVuSans-6d" transform="translate(1256.929688 0)"/>
     <use xlink:href="#DejaVuSans-65" transform="translate(1354.341797 0)"/>
     <use xlink:href="#DejaVuSans-73" transform="translate(1415.865234 0)"/>
     <use xlink:href="#DejaVuSans-73" transform="translate(1467.964844 0)"/>
     <use xlink:href="#DejaVuSans-61" transform="translate(1520.064453 0)"/>
     <use xlink:href="#DejaVuSans-67" transform="translate(1581.34375 0)"/>
     <use xlink:href="#DejaVuSans-65" transform="translate(1644.820312 0)"/>
     <use xlink:href="#DejaVuSans-73" transform="translate(1706.34375 0)"/>
    </g>
   </g>
   <g id="legend_1">
    <g id="patch_19">
     <path d="M 547.15 227.932375 
L 643.56875 227.932375 
Q 645.56875 227.932375 645.56875 225.932375 
L 645.56875 205.318625 
Q 645.56875 203.318625 643.56875 203.318625 
L 547.15 203.318625 
Q 545.15 203.318625 545.15 205.318625 
L 545.15 225.932375 
Q 545.15 227.932375 547.15 227.932375 
z
" style="fill: #4d4d4d; opacity: 0.5; stroke: #4d4d4d; stroke-linejoin: miter"/>
    </g>
    <g id="patch_20">
     <path d="M 545.15 225.932375 
L 641.56875 225.932375 
Q 643.56875 225.932375 643.56875 223.932375 
L 643.56875 203.318625 
Q 643.56875 201.318625 641.56875 201.318625 
L 545.15 201.318625 
Q 543.15 201.318625 543.15 203.318625 
L 543.15 223.932375 
Q 543.15 225.932375 545.15 225.932375 
z
" style="fill: #ffffff; stroke: #cccccc; stroke-linejoin: miter"/>
    </g>
    <g id="text_28">
     <!-- higher is better -->
     <g transform="translate(547.15 214.43675) scale(0.12 -0.12)">
      <use xlink:href="#DejaVuSans-68"/>
      <use xlink:href="#DejaVuSans-69" transform="translate(63.378906 0)"/>
      <use xlink:href="#DejaVuSans-67" transform="translate(91.162109 0)"/>
      <use xlink:href="#DejaVuSans-68" transform="translate(154.638672 0)"/>
      <use xlink:href="#DejaVuSans-65" transform="translate(218.017578 0)"/>
      <use xlink:href="#DejaVuSans-72" transform="translate(279.541016 0)"/>
      <use xlink:href="#DejaVuSans-20" transform="translate(320.654297 0)"/>
      <use xlink:href="#DejaVuSans-69" transform="translate(352.441406 0)"/>
      <use xlink:href="#DejaVuSans-73" transform="translate(380.224609 0)"/>
      <use xlink:href="#DejaVuSans-20" transform="translate(432.324219 0)"/>
      <use xlink:href="#DejaVuSans-62" transform="translate(464.111328 0)"/>
      <use xlink:href="#DejaVuSans-65" transform="translate(527.587891 0)"/>
      <use xlink:href="#DejaVuSans-74" transform="translate(589.111328 0)"/>
      <use xlink:href="#DejaVuSans-74" transform="translate(628.320312 0)"/>
      <use xlink:href="#DejaVuSans-65" transform="translate(667.529297 0)"/>
      <use xlink:href="#DejaVuSans-72" transform="translate(729.052734 0)"/>
     </g>
    </g>
   </g>
   <g id="legend_2">
    <g id="patch_21">
     <path d="M 551.470312 88.62425 
L 641.56875 88.62425 
Q 643.56875 88.62425 643.56875 86.62425 
L 643.56875 42.7555 
Q 643.56875 40.7555 641.56875 40.7555 
L 551.470312 40.7555 
Q 549.470312 40.7555 549.470312 42.7555 
L 549.470312 86.62425 
Q 549.470312 88.62425 551.470312 88.62425 
z
" style="fill: #ffffff; opacity: 0.8; stroke: #cccccc; stroke-linejoin: miter"/>
    </g>
    <g id="patch_22">
     <path d="M 553.470312 52.353938 
L 573.470312 52.353938 
L 573.470312 45.353938 
L 553.470312 45.353938 
z
" style="fill: #1f77b4"/>
    </g>
    <g id="text_29">
     <!-- basic_mt -->
     <g transform="translate(581.470312 52.353938) scale(0.1 -0.1)">
      <defs>
       <path id="DejaVuSans-5f" d="M 3263 -1063 
L 3263 -1509 
L -63 -1509 
L -63 -1063 
L 3263 -1063 
z
" transform="scale(0.015625)"/>
      </defs>
      <use xlink:href="#DejaVuSans-62"/>
      <use xlink:href="#DejaVuSans-61" transform="translate(63.476562 0)"/>
      <use xlink:href="#DejaVuSans-73" transform="translate(124.755859 0)"/>
      <use xlink:href="#DejaVuSans-69" transform="translate(176.855469 0)"/>
      <use xlink:href="#DejaVuSans-63" transform="translate(204.638672 0)"/>
      <use xlink:href="#DejaVuSans-5f" transform="translate(259.619141 0)"/>
      <use xlink:href="#DejaVuSans-6d" transform="translate(309.619141 0)"/>
      <use xlink:href="#DejaVuSans-74" transform="translate(407.03125 0)"/>
     </g>
    </g>
    <g id="patch_23">
     <path d="M 553.470312 67.310187 
L 573.470312 67.310187 
L 573.470312 60.310187 
L 553.470312 60.310187 
z
" style="fill: #ff7f0e"/>
    </g>
    <g id="text_30">
     <!-- rotating_mt -->
     <g transform="translate(581.470312 67.310187) scale(0.1 -0.1)">
      <use xlink:href="#DejaVuSans-72"/>
      <use xlink:href="#DejaVuSans-6f" transform="translate(38.863281 0)"/>
      <use xlink:href="#DejaVuSans-74" transform="translate(100.044922 0)"/>
      <use xlink:href="#DejaVuSans-61" transform="translate(139.253906 0)"/>
      <use xlink:href="#DejaVuSans-74" transform="translate(200.533203 0)"/>
      <use xlink:href="#DejaVuSans-69" transform="translate(239.742188 0)"/>
      <use xlink:href="#DejaVuSans-6e" transform="translate(267.525391 0)"/>
      <use xlink:href="#DejaVuSans-67" transform="translate(330.904297 0)"/>
      <use xlink:href="#DejaVuSans-5f" transform="translate(394.380859 0)"/>
      <use xlink:href="#DejaVuSans-6d" transform="translate(444.380859 0)"/>
      <use xlink:href="#DejaVuSans-74" transform="translate(541.792969 0)"/>
     </g>
    </g>
    <g id="patch_24">
     <path d="M 553.470312 82.266438 
L 573.470312 82.266438 
L 573.470312 75.266438 
L 553.470312 75.266438 
z
" style="fill: #2ca02c"/>
    </g>
    <g id="text_31">
     <!-- daily_mt -->
     <g transform="translate(581.470312 82.266438) scale(0.1 -0.1)">
      <use xlink:href="#DejaVuSans-64"/>
      <use xlink:href="#DejaVuSans-61" transform="translate(63.476562 0)"/>
      <use xlink:href="#DejaVuSans-69" transform="translate(124.755859 0)"/>
      <use xlink:href="#DejaVuSans-6c" transform="translate(152.539062 0)"/>
      <use xlink:href="#DejaVuSans-79" transform="translate(180.322266 0)"/>
      <use xlink:href="#DejaVuSans-5f" transform="translate(239.501953 0)"/>
      <use xlink:href="#DejaVuSans-6d" transform="translate(289.501953 0)"/>
      <use xlink:href="#DejaVuSans-74" transform="translate(386.914062 0)"/>
     </g>
    </g>
   </g>
  </g>
  <g id="axes_2">
   <g id="patch_25">
    <path d="M 90.56875 645.5955 
L 648.56875 645.5955 
L 648.56875 391.4955 
L 90.56875 391.4955 
z
" style="fill: #ffffff"/>
   </g>
   <g id="patch_26">
    <path d="M 90.56875 403.0455 
L 597.841477 403.0455 
L 597.841477 415.531986 
L 90.56875 415.531986 
z
" clip-path="url(#pb6887ff10c)" style="fill: #1f77b4"/>
   </g>
   <g id="patch_27">
    <path d="M 90.56875 465.477932 
L 593.249835 465.477932 
L 593.249835 477.964419 
L 90.56875 477.964419 
z
" clip-path="url(#pb6887ff10c)" style="fill: #1f77b4"/>
   </g>
   <g id="patch_28">
    <path d="M 90.56875 527.910365 
L 291.027089 527.910365 
L 291.027089 540.396851 
L 90.56875 540.396851 
z
" clip-path="url(#pb6887ff10c)" style="fill: #1f77b4"/>
   </g>
   <g id="patch_29">
    <path d="M 90.56875 590.342797 
L 441.94457 590.342797 
L 441.94457 602.829284 
L 90.56875 602.829284 
z
" clip-path="url(#pb6887ff10c)" style="fill: #1f77b4"/>
   </g>
   <g id="patch_30">
    <path d="M 90.56875 418.653608 
L 585.766413 418.653608 
L 585.766413 431.140095 
L 90.56875 431.140095 
z
" clip-path="url(#pb6887ff10c)" style="fill: #ff7f0e"/>
   </g>
   <g id="patch_31">
    <path d="M 90.56875 481.086041 
L 570.393915 481.086041 
L 570.393915 493.572527 
L 90.56875 493.572527 
z
" clip-path="url(#pb6887ff10c)" style="fill: #ff7f0e"/>
   </g>
   <g id="patch_32">
    <path d="M 90.56875 543.518473 
L 277.603503 543.518473 
L 277.603503 556.004959 
L 90.56875 556.004959 
z
" clip-path="url(#pb6887ff10c)" style="fill: #ff7f0e"/>
   </g>
   <g id="patch_33">
    <path d="M 90.56875 605.950905 
L 431.295978 605.950905 
L 431.295978 618.437392 
L 90.56875 618.437392 
z
" clip-path="url(#pb6887ff10c)" style="fill: #ff7f0e"/>
   </g>
   <g id="patch_34">
    <path d="M 90.56875 434.261716 
L 559.510063 434.261716 
L 559.510063 446.748203 
L 90.56875 446.748203 
z
" clip-path="url(#pb6887ff10c)" style="fill: #2ca02c"/>
   </g>
   <g id="patch_35">
    <path d="M 90.56875 496.694149 
L 590.481595 496.694149 
L 590.481595 509.180635 
L 90.56875 509.180635 
z
" clip-path="url(#pb6887ff10c)" style="fill: #2ca02c"/>
   </g>
   <g id="patch_36">
    <path d="M 90.56875 559.126581 
L 282.501039 559.126581 
L 282.501039 571.613068 
L 90.56875 571.613068 
z
" clip-path="url(#pb6887ff10c)" style="fill: #2ca02c"/>
   </g>
   <g id="patch_37">
    <path d="M 90.56875 621.559014 
L 426.881483 621.559014 
L 426.881483 634.0455 
L 90.56875 634.0455 
z
" clip-path="url(#pb6887ff10c)" style="fill: #2ca02c"/>
   </g>
   <g id="matplotlib.axis_3">
    <g id="xtick_10">
     <g id="line2d_14">
      <g>
       <use xlink:href="#m7f02fceb46" x="90.56875" y="645.5955" style="stroke: #000000; stroke-width: 0.8"/>
      </g>
     </g>
     <g id="text_32">
      <!-- 0 -->
      <g transform="translate(87.3875 660.193938) scale(0.1 -0.1)">
       <use xlink:href="#DejaVuSans-30"/>
      </g>
     </g>
    </g>
    <g id="xtick_11">
     <g id="line2d_15">
      <g>
       <use xlink:href="#m7f02fceb46" x="160.921499" y="645.5955" style="stroke: #000000; stroke-width: 0.8"/>
      </g>
     </g>
     <g id="text_33">
      <!-- 500000 -->
      <g transform="translate(141.833999 660.193938) scale(0.1 -0.1)">
       <use xlink:href="#DejaVuSans-35"/>
       <use xlink:href="#DejaVuSans-30" transform="translate(63.623047 0)"/>
       <use xlink:href="#DejaVuSans-30" transform="translate(127.246094 0)"/>
       <use xlink:href="#DejaVuSans-30" transform="translate(190.869141 0)"/>
       <use xlink:href="#DejaVuSans-30" transform="translate(254.492188 0)"/>
       <use xlink:href="#DejaVuSans-30" transform="translate(318.115234 0)"/>
      </g>
     </g>
    </g>
    <g id="xtick_12">
     <g id="line2d_16">
      <g>
       <use xlink:href="#m7f02fceb46" x="231.274248" y="645.5955" style="stroke: #000000; stroke-width: 0.8"/>
      </g>
     </g>
     <g id="text_34">
      <!-- 1000000 -->
      <g transform="translate(209.005498 660.193938) scale(0.1 -0.1)">
       <use xlink:href="#DejaVuSans-31"/>
       <use xlink:href="#DejaVuSans-30" transform="translate(63.623047 0)"/>
       <use xlink:href="#DejaVuSans-30" transform="translate(127.246094 0)"/>
       <use xlink:href="#DejaVuSans-30" transform="translate(190.869141 0)"/>
       <use xlink:href="#DejaVuSans-30" transform="translate(254.492188 0)"/>
       <use xlink:href="#DejaVuSans-30" transform="translate(318.115234 0)"/>
       <use xlink:href="#DejaVuSans-30" transform="translate(381.738281 0)"/>
      </g>
     </g>
    </g>
    <g id="xtick_13">
     <g id="line2d_17">
      <g>
       <use xlink:href="#m7f02fceb46" x="301.626997" y="645.5955" style="stroke: #000000; stroke-width: 0.8"/>
      </g>
     </g>
     <g id="text_35">
      <!-- 1500000 -->
      <g transform="translate(279.358247 660.193938) scale(0.1 -0.1)">
       <use xlink:href="#DejaVuSans-31"/>
       <use xlink:href="#DejaVuSans-35" transform="translate(63.623047 0)"/>
       <use xlink:href="#DejaVuSans-30" transform="translate(127.246094 0)"/>
       <use xlink:href="#DejaVuSans-30" transform="translate(190.869141 0)"/>
       <use xlink:href="#DejaVuSans-30" transform="translate(254.492188 0)"/>
       <use xlink:href="#DejaVuSans-30" transform="translate(318.115234 0)"/>
       <use xlink:href="#DejaVuSans-30" transform="translate(381.738281 0)"/>
      </g>
     </g>
    </g>
    <g id="xtick_14">
     <g id="line2d_18">
      <g>
       <use xlink:href="#m7f02fceb46" x="371.979746" y="645.5955" style="stroke: #000000; stroke-width: 0.8"/>
      </g>
     </g>
     <g id="text_36">
      <!-- 2000000 -->
      <g transform="translate(349.710996 660.193938) scale(0.1 -0.1)">
       <use xlink:href="#DejaVuSans-32"/>
       <use xlink:href="#DejaVuSans-30" transform="translate(63.623047 0)"/>
       <use xlink:href="#DejaVuSans-30" transform="translate(127.246094 0)"/>
       <use xlink:href="#DejaVuSans-30" transform="translate(190.869141 0)"/>
       <use xlink:href="#DejaVuSans-30" transform="translate(254.492188 0)"/>
       <use xlink:href="#DejaVuSans-30" transform="translate(318.115234 0)"/>
       <use xlink:href="#DejaVuSans-30" transform="translate(381.738281 0)"/>
      </g>
     </g>
    </g>
    <g id="xtick_15">
     <g id="line2d_19">
      <g>
       <use xlink:href="#m7f02fceb46" x="442.332495" y="645.5955" style="stroke: #000000; stroke-width: 0.8"/>
      </g>
     </g>
     <g id="text_37">
      <!-- 2500000 -->
      <g transform="translate(420.063745 660.193938) scale(0.1 -0.1)">
       <use xlink:href="#DejaVuSans-32"/>
       <use xlink:href="#DejaVuSans-35" transform="translate(63.623047 0)"/>
       <use xlink:href="#DejaVuSans-30" transform="translate(127.246094 0)"/>
       <use xlink:href="#DejaVuSans-30" transform="translate(190.869141 0)"/>
       <use xlink:href="#DejaVuSans-30" transform="translate(254.492188 0)"/>
       <use xlink:href="#DejaVuSans-30" transform="translate(318.115234 0)"/>
       <use xlink:href="#DejaVuSans-30" transform="translate(381.738281 0)"/>
      </g>
     </g>
    </g>
    <g id="xtick_16">
     <g id="line2d_20">
      <g>
       <use xlink:href="#m7f02fceb46" x="512.685244" y="645.5955" style="stroke: #000000; stroke-width: 0.8"/>
      </g>
     </g>
     <g id="text_38">
      <!-- 3000000 -->
      <g transform="translate(490.416494 660.193938) scale(0.1 -0.1)">
       <use xlink:href="#DejaVuSans-33"/>
       <use xlink:href="#DejaVuSans-30" transform="translate(63.623047 0)"/>
       <use xlink:href="#DejaVuSans-30" transform="translate(127.246094 0)"/>
       <use xlink:href="#DejaVuSans-30" transform="translate(190.869141 0)"/>
       <use xlink:href="#DejaVuSans-30" transform="translate(254.492188 0)"/>
       <use xlink:href="#DejaVuSans-30" transform="translate(318.115234 0)"/>
       <use xlink:href="#DejaVuSans-30" transform="translate(381.738281 0)"/>
      </g>
     </g>
    </g>
    <g id="xtick_17">
     <g id="line2d_21">
      <g>
       <use xlink:href="#m7f02fceb46" x="583.037993" y="645.5955" style="stroke: #000000; stroke-width: 0.8"/>
      </g>
     </g>
     <g id="text_39">
      <!-- 3500000 -->
      <g transform="translate(560.769243 660.193938) scale(0.1 -0.1)">
       <use xlink:href="#DejaVuSans-33"/>
       <use xlink:href="#DejaVuSans-35" transform="translate(63.623047 0)"/>
       <use xlink:href="#DejaVuSans-30" transform="translate(127.246094 0)"/>
       <use xlink:href="#DejaVuSans-30" transform="translate(190.869141 0)"/>
       <use xlink:href="#DejaVuSans-30" transform="translate(254.492188 0)"/>
       <use xlink:href="#DejaVuSans-30" transform="translate(318.115234 0)"/>
       <use xlink:href="#DejaVuSans-30" transform="translate(381.738281 0)"/>
      </g>
     </g>
    </g>
    <g id="text_40">
     <!-- logs/sec -->
     <g transform="translate(349.226562 673.872063) scale(0.1 -0.1)">
      <use xlink:href="#DejaVuSans-6c"/>
      <use xlink:href="#DejaVuSans-6f" transform="translate(27.783203 0)"/>
      <use xlink:href="#DejaVuSans-67" transform="translate(88.964844 0)"/>
      <use xlink:href="#DejaVuSans-73" transform="translate(152.441406 0)"/>
      <use xlink:href="#DejaVuSans-2f" transform="translate(204.541016 0)"/>
      <use xlink:href="#DejaVuSans-73" transform="translate(238.232422 0)"/>
      <use xlink:href="#DejaVuSans-65" transform="translate(290.332031 0)"/>
      <use xlink:href="#DejaVuSans-63" transform="translate(351.855469 0)"/>
     </g>
    </g>
   </g>
   <g id="matplotlib.axis_4">
    <g id="ytick_5">
     <g id="line2d_22">
      <g>
       <use xlink:href="#m6b85edcb11" x="90.56875" y="424.896851" style="stroke: #000000; stroke-width: 0.8"/>
      </g>
     </g>
     <g id="text_41">
      <!-- spdlog-rs -->
      <g style="fill: #ff0000" transform="translate(37.489063 423.857008) scale(0.1 -0.1)">
       <use xlink:href="#DejaVuSans-73"/>
       <use xlink:href="#DejaVuSans-70" transform="translate(52.099609 0)"/>
       <use xlink:href="#DejaVuSans-64" transform="translate(115.576172 0)"/>
       <use xlink:href="#DejaVuSans-6c" transform="translate(179.052734 0)"/>
       <use xlink:href="#DejaVuSans-6f" transform="translate(206.835938 0)"/>
       <use xlink:href="#DejaVuSans-67" transform="translate(268.017578 0)"/>
       <use xlink:href="#DejaVuSans-2d" transform="translate(331.494141 0)"/>
       <use xlink:href="#DejaVuSans-72" transform="translate(367.578125 0)"/>
       <use xlink:href="#DejaVuSans-73" transform="translate(408.691406 0)"/>
      </g>
      <!-- 0.5.0 -->
      <g style="fill: #ff0000" transform="translate(58.125 435.05482) scale(0.1 -0.1)">
       <use xlink:href="#DejaVuSans-30"/>
       <use xlink:href="#DejaVuSans-2e" transform="translate(63.623047 0)"/>
       <use xlink:href="#DejaVuSans-35" transform="translate(95.410156 0)"/>
       <use xlink:href="#DejaVuSans-2e" transform="translate(159.033203 0)"/>
       <use xlink:href="#DejaVuSans-30" transform="translate(190.820312 0)"/>
      </g>
     </g>
    </g>
    <g id="ytick_6">
     <g id="line2d_23">
      <g>
       <use xlink:href="#m6b85edcb11" x="90.56875" y="487.329284" style="stroke: #000000; stroke-width: 0.8"/>
      </g>
     </g>
     <g id="text_42">
      <!-- spdlog-rs -->
      <g style="fill: #ff0000" transform="translate(37.489063 480.690534) scale(0.1 -0.1)">
       <use xlink:href="#DejaVuSans-73"/>
       <use xlink:href="#DejaVuSans-70" transform="translate(52.099609 0)"/>
       <use xlink:href="#DejaVuSans-64" transform="translate(115.576172 0)"/>
       <use xlink:href="#DejaVuSans-6c" transform="translate(179.052734 0)"/>
       <use xlink:href="#DejaVuSans-6f" transform="translate(206.835938 0)"/>
       <use xlink:href="#DejaVuSans-67" transform="translate(268.017578 0)"/>
       <use xlink:href="#DejaVuSans-2d" transform="translate(331.494141 0)"/>
       <use xlink:href="#DejaVuSans-72" transform="translate(367.578125 0)"/>
       <use xlink:href="#DejaVuSans-73" transform="translate(408.691406 0)"/>
      </g>
      <!-- 0.5.0 -->
      <g style="fill: #ff0000" transform="translate(58.125 491.888346) scale(0.1 -0.1)">
       <use xlink:href="#DejaVuSans-30"/>
       <use xlink:href="#DejaVuSans-2e" transform="translate(63.623047 0)"/>
       <use xlink:href="#DejaVuSans-35" transform="translate(95.410156 0)"/>
       <use xlink:href="#DejaVuSans-2e" transform="translate(159.033203 0)"/>
       <use xlink:href="#DejaVuSans-30" transform="translate(190.820312 0)"/>
      </g>
      <!-- (flexible-string) -->
      <g style="fill: #ff0000" transform="translate(7.2 503.086159) scale(0.1 -0.1)">
       <use xlink:href="#DejaVuSans-28"/>
       <use xlink:href="#DejaVuSans-66" transform="translate(39.013672 0)"/>
       <use xlink:href="#DejaVuSans-6c" transform="translate(74.21875 0)"/>
       <use xlink:href="#DejaVuSans-65" transform="translate(102.001953 0)"/>
       <use xlink:href="#DejaVuSans-78" transform="translate(161.775391 0)"/>
       <use xlink:href="#DejaVuSans-69" transform="translate(220.955078 0)"/>
       <use xlink:href="#DejaVuSans-62" transform="translate(248.738281 0)"/>
       <use xlink:href="#DejaVuSans-6c" transform="translate(312.214844 0)"/>
       <use xlink:href="#DejaVuSans-65" transform="translate(339.998047 0)"/>
       <use xlink:href="#DejaVuSans-2d" transform="translate(401.521484 0)"/>
       <use xlink:href="#DejaVuSans-73" transform="translate(437.605469 0)"/>
       <use xlink:href="#DejaVuSans-74" transform="translate(489.705078 0)"/>
       <use xlink:href="#DejaVuSans-72" transform="translate(528.914062 0)"/>
       <use xlink:href="#DejaVuSans-69" transform="translate(570.027344 0)"/>
       <use xlink:href="#DejaVuSans-6e" transform="translate(597.810547 0)"/>
       <use xlink:href="#DejaVuSans-67" transform="translate(661.189453 0)"/>
       <use xlink:href="#DejaVuSans-29" transform="translate(724.666016 0)"/>
      </g>
     </g>
    </g>
    <g id="ytick_7">
     <g id="line2d_24">
      <g>
       <use xlink:href="#m6b85edcb11" x="90.56875" y="549.761716" style="stroke: #000000; stroke-width: 0.8"/>
      </g>
     </g>
     <g id="text_43">
      <!-- C++ spdlog -->
      <g transform="translate(23.496875 543.122966) scale(0.1 -0.1)">
       <use xlink:href="#DejaVuSans-43"/>
       <use xlink:href="#DejaVuSans-2b" transform="translate(69.824219 0)"/>
       <use xlink:href="#DejaVuSans-2b" transform="translate(153.613281 0)"/>
       <use xlink:href="#DejaVuSans-20" transform="translate(237.402344 0)"/>
       <use xlink:href="#DejaVuSans-73" transform="translate(269.189453 0)"/>
       <use xlink:href="#DejaVuSans-70" transform="translate(321.289062 0)"/>
       <use xlink:href="#DejaVuSans-64" transform="translate(384.765625 0)"/>
       <use xlink:href="#DejaVuSans-6c" transform="translate(448.242188 0)"/>
       <use xlink:href="#DejaVuSans-6f" transform="translate(476.025391 0)"/>
       <use xlink:href="#DejaVuSans-67" transform="translate(537.207031 0)"/>
      </g>
      <!-- 1.15.3 -->
      <g transform="translate(51.7625 554.320779) scale(0.1 -0.1)">
       <use xlink:href="#DejaVuSans-31"/>
       <use xlink:href="#DejaVuSans-2e" transform="translate(63.623047 0)"/>
       <use xlink:href="#DejaVuSans-31" transform="translate(95.410156 0)"/>
       <use xlink:href="#DejaVuSans-35" transform="translate(159.033203 0)"/>
       <use xlink:href="#DejaVuSans-2e" transform="translate(222.65625 0)"/>
       <use xlink:href="#DejaVuSans-33" transform="translate(254.443359 0)"/>
      </g>
      <!-- (std-format) -->
      <g transform="translate(23.315625 565.518591) scale(0.1 -0.1)">
       <use xlink:href="#DejaVuSans-28"/>
       <use xlink:href="#DejaVuSans-73" transform="translate(39.013672 0)"/>
       <use xlink:href="#DejaVuSans-74" transform="translate(91.113281 0)"/>
       <use xlink:href="#DejaVuSans-64" transform="translate(130.322266 0)"/>
       <use xlink:href="#DejaVuSans-2d" transform="translate(193.798828 0)"/>
       <use xlink:href="#DejaVuSans-66" transform="translate(229.882812 0)"/>
       <use xlink:href="#DejaVuSans-6f" transform="translate(265.087891 0)"/>
       <use xlink:href="#DejaVuSans-72" transform="translate(326.269531 0)"/>
       <use xlink:href="#DejaVuSans-6d" transform="translate(365.632812 0)"/>
       <use xlink:href="#DejaVuSans-61" transform="translate(463.044922 0)"/>
       <use xlink:href="#DejaVuSans-74" transform="translate(524.324219 0)"/>
       <use xlink:href="#DejaVuSans-29" transform="translate(563.533203 0)"/>
      </g>
     </g>
    </g>
    <g id="ytick_8">
     <g id="line2d_25">
      <g>
       <use xlink:href="#m6b85edcb11" x="90.56875" y="612.194149" style="stroke: #000000; stroke-width: 0.8"/>
      </g>
     </g>
     <g id="text_44">
      <!-- C++ spdlog -->
      <g transform="translate(23.496875 605.555399) scale(0.1 -0.1)">
       <use xlink:href="#DejaVuSans-43"/>
       <use xlink:href="#DejaVuSans-2b" transform="translate(69.824219 0)"/>
       <use xlink:href="#DejaVuSans-2b" transform="translate(153.613281 0)"/>
       <use xlink:href="#DejaVuSans-20" transform="translate(237.402344 0)"/>
       <use xlink:href="#DejaVuSans-73" transform="translate(269.189453 0)"/>
       <use xlink:href="#DejaVuSans-70" transform="translate(321.289062 0)"/>
       <use xlink:href="#DejaVuSans-64" transform="translate(384.765625 0)"/>
       <use xlink:href="#DejaVuSans-6c" transform="translate(448.242188 0)"/>
       <use xlink:href="#DejaVuSans-6f" transform="translate(476.025391 0)"/>
       <use xlink:href="#DejaVuSans-67" transform="translate(537.207031 0)"/>
      </g>
      <!-- 1.15.3 -->
      <g transform="translate(51.7625 616.753211) scale(0.1 -0.1)">
       <use xlink:href="#DejaVuSans-31"/>
       <use xlink:href="#DejaVuSans-2e" transform="translate(63.623047 0)"/>
       <use xlink:href="#DejaVuSans-31" transform="translate(95.410156 0)"/>
       <use xlink:href="#DejaVuSans-35" transform="translate(159.033203 0)"/>
       <use xlink:href="#DejaVuSans-2e" transform="translate(222.65625 0)"/>
       <use xlink:href="#DejaVuSans-33" transform="translate(254.443359 0)"/>
      </g>
      <!-- (fmt) -->
      <g transform="translate(58.584375 627.951024) scale(0.1 -0.1)">
       <use xlink:href="#DejaVuSans-28"/>
       <use xlink:href="#DejaVuSans-66" transform="translate(39.013672 0)"/>
       <use xlink:href="#DejaVuSans-6d" transform="translate(74.21875 0)"/>
       <use xlink:href="#DejaVuSans-74" transform="translate(171.630859 0)"/>
       <use xlink:href="#DejaVuSans-29" transform="translate(210.839844 0)"/>
      </g>
     </g>
    </g>
   </g>
   <g id="patch_38">
    <path d="M 90.56875 645.5955 
L 90.56875 391.4955 
" style="fill: none; stroke: #000000; stroke-width: 0.8; stroke-linejoin: miter; stroke-linecap: square"/>
   </g>
   <g id="patch_39">
    <path d="M 648.56875 645.5955 
L 648.56875 391.4955 
" style="fill: none; stroke: #000000; stroke-width: 0.8; stroke-linejoin: miter; stroke-linecap: square"/>
   </g>
   <g id="patch_40">
    <path d="M 90.56875 645.5955 
L 648.56875 645.5955 
" style="fill: none; stroke: #000000; stroke-width: 0.8; stroke-linejoin: miter; stroke-linecap: square"/>
   </g>
   <g id="patch_41">
    <path d="M 90.56875 391.4955 
L 648.56875 391.4955 
" style="fill: none; stroke: #000000; stroke-width: 0.8; stroke-linejoin: miter; stroke-linecap: square"/>
   </g>
   <g id="text_45">
    <!-- 3605209 -->
    <g transform="translate(600.841477 412.048118) scale(0.1 -0.1)">
     <use xlink:href="#DejaVuSans-33"/>
     <use xlink:href="#DejaVuSans-36" transform="translate(63.623047 0)"/>
     <use xlink:href="#DejaVuSans-30" transform="translate(127.246094 0)"/>
     <use xlink:href="#DejaVuSans-35" transform="translate(190.869141 0)"/>
     <use xlink:href="#DejaVuSans-32" transform="translate(254.492188 0)"/>
     <use xlink:href="#DejaVuSans-30" transform="translate(318.115234 0)"/>
     <use xlink:href="#DejaVuSans-39" transform="translate(381.738281 0)"/>
    </g>
   </g>
   <g id="text_46">
    <!-- 3572576 -->
    <g transform="translate(596.249835 474.480551) scale(0.1 -0.1)">
     <use xlink:href="#DejaVuSans-33"/>
     <use xlink:href="#DejaVuSans-35" transform="translate(63.623047 0)"/>
     <use xlink:href="#DejaVuSans-37" transform="translate(127.246094 0)"/>
     <use xlink:href="#DejaVuSans-32" transform="translate(190.869141 0)"/>
     <use xlink:href="#DejaVuSans-35" transform="translate(254.492188 0)"/>
     <use xlink:href="#DejaVuSans-37" transform="translate(318.115234 0)"/>
     <use xlink:href="#DejaVuSans-36" transform="translate(381.738281 0)"/>
    </g>
   </g>
   <g id="text_47">
    <!-- 1424666 -->
    <g transform="translate(294.027089 536.912983) scale(0.1 -0.1)">
     <use xlink:href="#DejaVuSans-31"/>
     <use xlink:href="#DejaVuSans-34" transform="translate(63.623047 0)"/>
     <use xlink:href="#DejaVuSans-32" transform="translate(127.246094 0)"/>
     <use xlink:href="#DejaVuSans-34" transform="translate(190.869141 0)"/>
     <use xlink:href="#DejaVuSans-36" transform="translate(254.492188 0)"/>
     <use xlink:href="#DejaVuSans-36" transform="translate(318.115234 0)"/>
     <use xlink:href="#DejaVuSans-36" transform="translate(381.738281 0)"/>
    </g>
   </g>
   <g id="text_48">
    <!-- 2497243 -->
    <g transform="translate(444.94457 599.345416) scale(0.1 -0.1)">
     <use xlink:href="#DejaVuSans-32"/>
     <use xlink:href="#DejaVuSans-34" transform="translate(63.623047 0)"/>
     <use xlink:href="#DejaVuSans-39" transform="translate(127.246094 0)"/>
     <use xlink:href="#DejaVuSans-37" transform="translate(190.869141 0)"/>
     <use xlink:href="#DejaVuSans-32" transform="translate(254.492188 0)"/>
     <use xlink:href="#DejaVuSans-34" transform="translate(318.115234 0)"/>
     <use xlink:href="#DejaVuSans-33" transform="translate(381.738281 0)"/>
    </g>
   </g>
   <g id="text_49">
    <!-- 3519391 -->
    <g transform="translate(588.766413 427.656226) scale(0.1 -0.1)">
     <use xlink:href="#DejaVuSans-33"/>
     <use xlink:href="#DejaVuSans-35" transform="translate(63.623047 0)"/>
     <use xlink:href="#DejaVuSans-31" transform="translate(127.246094 0)"/>
     <use xlink:href="#DejaVuSans-39" transform="translate(190.869141 0)"/>
     <use xlink:href="#DejaVuSans-33" transform="translate(254.492188 0)"/>
     <use xlink:href="#DejaVuSans-39" transform="translate(318.115234 0)"/>
     <use xlink:href="#DejaVuSans-31" transform="translate(381.738281 0)"/>
    </g>
   </g>
   <g id="text_50">
    <!-- 3410138 -->
    <g transform="translate(573.393915 490.088659) scale(0.1 -0.1)">
     <use xlink:href="#DejaVuSans-33"/>
     <use xlink:href="#DejaVuSans-34" transform="translate(63.623047 0)"/>
     <use xlink:href="#DejaVuSans-31" transform="translate(127.246094 0)"/>
     <use xlink:href="#DejaVuSans-30" transform="translate(190.869141 0)"/>
     <use xlink:href="#DejaVuSans-31" transform="translate(254.492188 0)"/>
     <use xlink:href="#DejaVuSans-33" transform="translate(318.115234 0)"/>
     <use xlink:href="#DejaVuSans-38" transform="translate(381.738281 0)"/>
    </g>
   </g>
   <g id="text_51">
    <!-- 1329264 -->
    <g transform="translate(280.603503 552.521091) scale(0.1 -0.1)">
     <use xlink:href="#DejaVuSans-31"/>
     <use xlink:href="#DejaVuSans-33" transform="translate(63.623047 0)"/>
     <use xlink:href="#DejaVuSans-32" transform="translate(127.246094 0)"/>
     <use xlink:href="#DejaVuSans-39" transform="translate(190.869141 0)"/>
     <use xlink:href="#DejaVuSans-32" transform="translate(254.492188 0)"/>
     <use xlink:href="#DejaVuSans-36" transform="translate(318.115234 0)"/>
     <use xlink:href="#DejaVuSans-34" transform="translate(381.738281 0)"/>
    </g>
   </g>
   <g id="text_52">
    <!-- 2421563 -->
    <g transform="translate(434.295978 614.953524) scale(0.1 -0.1)">
     <use xlink:href="#DejaVuSans-32"/>
     <use xlink:href="#DejaVuSans-34" transform="translate(63.623047 0)"/>
     <use xlink:href="#DejaVuSans-32" transform="translate(127.246094 0)"/>
     <use xlink:href="#DejaVuSans-31" transform="translate(190.869141 0)"/>
     <use xlink:href="#DejaVuSans-35" transform="translate(254.492188 0)"/>
     <use xlink:href="#DejaVuSans-36" transform="translate(318.115234 0)"/>
     <use xlink:href="#DejaVuSans-33" transform="translate(381.738281 0)"/>
    </g>
   </g>
   <g id="text_53">
    <!-- 3332786 -->
    <g transform="translate(562.510063 443.264334) scale(0.1 -0.1)">
     <use xlink:href="#DejaVuSans-33"/>
     <use xlink:href="#DejaVuSans-33" transform="translate(63.623047 0)"/>
     <use xlink:href="#DejaVuSans-33" transform="translate(127.246094 0)"/>
     <use xlink:href="#DejaVuSans-32" transform="translate(190.869141 0)"/>
     <use xlink:href="#DejaVuSans-37" transform="translate(254.492188 0)"/>
     <use xlink:href="#DejaVuSans-38" transform="translate(318.115234 0)"/>
     <use xlink:href="#DejaVuSans-36" transform="translate(381.738281 0)"/>
    </g>
   </g>
   <g id="text_54">
    <!-- 3552902 -->
    <g transform="translate(593.481595 505.696767) scale(0.1 -0.1)">
     <use xlink:href="#DejaVuSans-33"/>
     <use xlink:href="#DejaVuSans-35" transform="translate(63.623047 0)"/>
     <use xlink:href="#DejaVuSans-35" transform="translate(127.246094 0)"/>
     <use xlink:href="#DejaVuSans-32" transform="translate(190.869141 0)"/>
     <use xlink:href="#DejaVuSans-39" transform="translate(254.492188 0)"/>
     <use xlink:href="#DejaVuSans-30" transform="translate(318.115234 0)"/>
     <use xlink:href="#DejaVuSans-32" transform="translate(381.738281 0)"/>
    </g>
   </g>
   <g id="text_55">
    <!-- 1364071 -->
    <g transform="translate(285.501039 568.129199) scale(0.1 -0.1)">
     <use xlink:href="#DejaVuSans-31"/>
     <use xlink:href="#DejaVuSans-33" transform="translate(63.623047 0)"/>
     <use xlink:href="#DejaVuSans-36" transform="translate(127.246094 0)"/>
     <use xlink:href="#DejaVuSans-34" transform="translate(190.869141 0)"/>
     <use xlink:href="#DejaVuSans-30" transform="translate(254.492188 0)"/>
     <use xlink:href="#DejaVuSans-37" transform="translate(318.115234 0)"/>
     <use xlink:href="#DejaVuSans-31" transform="translate(381.738281 0)"/>
    </g>
   </g>
   <g id="text_56">
    <!-- 2390189 -->
    <g transform="translate(429.881483 630.561632) scale(0.1 -0.1)">
     <use xlink:href="#DejaVuSans-32"/>
     <use xlink:href="#DejaVuSans-33" transform="translate(63.623047 0)"/>
     <use xlink:href="#DejaVuSans-39" transform="translate(127.246094 0)"/>
     <use xlink:href="#DejaVuSans-30" transform="translate(190.869141 0)"/>
     <use xlink:href="#DejaVuSans-31" transform="translate(254.492188 0)"/>
     <use xlink:href="#DejaVuSans-38" transform="translate(318.115234 0)"/>
     <use xlink:href="#DejaVuSans-39" transform="translate(381.738281 0)"/>
    </g>
   </g>
   <g id="text_57">
    <!-- spdlog-rs vs C++ spdlog -->
    <g transform="translate(295.387188 372.058125) scale(0.12 -0.12)">
     <use xlink:href="#DejaVuSans-73"/>
     <use xlink:href="#DejaVuSans-70" transform="translate(52.099609 0)"/>
     <use xlink:href="#DejaVuSans-64" transform="translate(115.576172 0)"/>
     <use xlink:href="#DejaVuSans-6c" transform="translate(179.052734 0)"/>
     <use xlink:href="#DejaVuSans-6f" transform="translate(206.835938 0)"/>
     <use xlink:href="#DejaVuSans-67" transform="translate(268.017578 0)"/>
     <use xlink:href="#DejaVuSans-2d" transform="translate(331.494141 0)"/>
     <use xlink:href="#DejaVuSans-72" transform="translate(367.578125 0)"/>
     <use xlink:href="#DejaVuSans-73" transform="translate(408.691406 0)"/>
     <use xlink:href="#DejaVuSans-20" transform="translate(460.791016 0)"/>
     <use xlink:href="#DejaVuSans-76" transform="translate(492.578125 0)"/>
     <use xlink:href="#DejaVuSans-73" transform="translate(551.757812 0)"/>
     <use xlink:href="#DejaVuSans-20" transform="translate(603.857422 0)"/>
     <use xlink:href="#DejaVuSans-43" transform="translate(635.644531 0)"/>
     <use xlink:href="#DejaVuSans-2b" transform="translate(705.46875 0)"/>
     <use xlink:href="#DejaVuSans-2b" transform="translate(789.257812 0)"/>
     <use xlink:href="#DejaVuSans-20" transform="translate(873.046875 0)"/>
     <use xlink:href="#DejaVuSans-73" transform="translate(904.833984 0)"/>
     <use xlink:href="#DejaVuSans-70" transform="translate(956.933594 0)"/>
     <use xlink:href="#DejaVuSans-64" transform="translate(1020.410156 0)"/>
     <use xlink:href="#DejaVuSans-6c" transform="translate(1083.886719 0)"/>
     <use xlink:href="#DejaVuSans-6f" transform="translate(1111.669922 0)"/>
     <use xlink:href="#DejaVuSans-67" transform="translate(1172.851562 0)"/>
    </g>
    <!-- Sync, 4 threads, 250000 messages -->
    <g transform="translate(264.0625 385.4955) scale(0.12 -0.12)">
     <use xlink:href="#DejaVuSans-53"/>
     <use xlink:href="#DejaVuSans-79" transform="translate(63.476562 0)"/>
     <use xlink:href="#DejaVuSans-6e" transform="translate(122.65625 0)"/>
     <use xlink:href="#DejaVuSans-63" transform="translate(186.035156 0)"/>
     <use xlink:href="#DejaVuSans-2c" transform="translate(241.015625 0)"/>
     <use xlink:href="#DejaVuSans-20" transform="translate(272.802734 0)"/>
     <use xlink:href="#DejaVuSans-34" transform="translate(304.589844 0)"/>
     <use xlink:href="#DejaVuSans-20" transform="translate(368.212891 0)"/>
     <use xlink:href="#DejaVuSans-74" transform="translate(400 0)"/>
     <use xlink:href="#DejaVuSans-68" transform="translate(439.208984 0)"/>
     <use xlink:href="#DejaVuSans-72" transform="translate(502.587891 0)"/>
     <use xlink:href="#DejaVuSans-65" transform="translate(541.451172 0)"/>
     <use xlink:href="#DejaVuSans-61" transform="translate(602.974609 0)"/>
     <use xlink:href="#DejaVuSans-64" transform="translate(664.253906 0)"/>
     <use xlink:href="#DejaVuSans-73" transform="translate(727.730469 0)"/>
     <use xlink:href="#DejaVuSans-2c" transform="translate(779.830078 0)"/>
     <use xlink:href="#DejaVuSans-20" transform="translate(811.617188 0)"/>
     <use xlink:href="#DejaVuSans-32" transform="translate(843.404297 0)"/>
     <use xlink:href="#DejaVuSans-35" transform="translate(907.027344 0)"/>
     <use xlink:href="#DejaVuSans-30" transform="translate(970.650391 0)"/>
     <use xlink:href="#DejaVuSans-30" transform="translate(1034.273438 0)"/>
     <use xlink:href="#DejaVuSans-30" transform="translate(1097.896484 0)"/>
     <use xlink:href="#DejaVuSans-30" transform="translate(1161.519531 0)"/>
     <use xlink:href="#DejaVuSans-20" transform="translate(1225.142578 0)"/>
     <use xlink:href="#DejaVuSans-6d" transform="translate(1256.929688 0)"/>
     <use xlink:href="#DejaVuSans-65" transform="translate(1354.341797 0)"/>
     <use xlink:href="#DejaVuSans-73" transform="translate(1415.865234 0)"/>
     <use xlink:href="#DejaVuSans-73" transform="translate(1467.964844 0)"/>
     <use xlink:href="#DejaVuSans-61" transform="translate(1520.064453 0)"/>
     <use xlink:href="#DejaVuSans-67" transform="translate(1581.34375 0)"/>
     <use xlink:href="#DejaVuSans-65" transform="translate(1644.820312 0)"/>
     <use xlink:href="#DejaVuSans-73" transform="translate(1706.34375 0)"/>
    </g>
   </g>
   <g id="legend_3">
    <g id="patch_42">
     <path d="M 547.15 583.672375 
L 643.56875 583.672375 
Q 645.56875 583.672375 645.56875 581.672375 
L 645.56875 561.058625 
Q 645.56875 559.058625 643.56875 559.058625 
L 547.15 559.058625 
Q 545.15 559.058625 545.15 561.058625 
L 545.15 581.672375 
Q 545.15 583.672375 547.15 583.672375 
z
" style="fill: #4d4d4d; opacity: 0.5; stroke: #4d4d4d; stroke-linejoin: miter"/>
    </g>
    <g id="patch_43">
     <path d="M 545.15 581.672375 
L 641.56875 581.672375 
Q 643.56875 581.672375 643.56875 579.672375 
L 643.56875 559.058625 
Q 643.56875 557.058625 641.56875 557.058625 
L 545.15 557.058625 
Q 543.15 557.058625 543.15 559.058625 
L 543.15 579.672375 
Q 543.15 581.672375 545.15 581.672375 
z
" style="fill: #ffffff; stroke: #cccccc; stroke-linejoin: miter"/>
    </g>
    <g id="text_58">
     <!-- higher is better -->
     <g transform="translate(547.15 570.17675) scale(0.12 -0.12)">
      <use xlink:href="#DejaVuSans-68"/>
      <use xlink:href="#DejaVuSans-69" transform="translate(63.378906 0)"/>
      <use xlink:href="#DejaVuSans-67" transform="translate(91.162109 0)"/>
      <use xlink:href="#DejaVuSans-68" transform="translate(154.638672 0)"/>
      <use xlink:href="#DejaVuSans-65" transform="translate(218.017578 0)"/>
      <use xlink:href="#DejaVuSans-72" transform="translate(279.541016 0)"/>
      <use xlink:href="#DejaVuSans-20" transform="translate(320.654297 0)"/>
      <use xlink:href="#DejaVuSans-69" transform="translate(352.441406 0)"/>
      <use xlink:href="#DejaVuSans-73" transform="translate(380.224609 0)"/>
      <use xlink:href="#DejaVuSans-20" transform="translate(432.324219 0)"/>
      <use xlink:href="#DejaVuSans-62" transform="translate(464.111328 0)"/>
      <use xlink:href="#DejaVuSans-65" transform="translate(527.587891 0)"/>
      <use xlink:href="#DejaVuSans-74" transform="translate(589.111328 0)"/>
      <use xlink:href="#DejaVuSans-74" transform="translate(628.320312 0)"/>
      <use xlink:href="#DejaVuSans-65" transform="translate(667.529297 0)"/>
      <use xlink:href="#DejaVuSans-72" transform="translate(729.052734 0)"/>
     </g>
    </g>
   </g>
   <g id="legend_4">
    <g id="patch_44">
     <path d="M 551.470312 640.5955 
L 641.56875 640.5955 
Q 643.56875 640.5955 643.56875 638.5955 
L 643.56875 594.72675 
Q 643.56875 592.72675 641.56875 592.72675 
L 551.470312 592.72675 
Q 549.470312 592.72675 549.470312 594.72675 
L 549.470312 638.5955 
Q 549.470312 640.5955 551.470312 640.5955 
z
" style="fill: #ffffff; opacity: 0.8; stroke: #cccccc; stroke-linejoin: miter"/>
    </g>
    <g id="patch_45">
     <path d="M 553.470312 604.325188 
L 573.470312 604.325188 
L 573.470312 597.325188 
L 553.470312 597.325188 
z
" style="fill: #1f77b4"/>
    </g>
    <g id="text_59">
     <!-- basic_mt -->
     <g transform="translate(581.470312 604.325188) scale(0.1 -0.1)">
      <use xlink:href="#DejaVuSans-62"/>
      <use xlink:href="#DejaVuSans-61" transform="translate(63.476562 0)"/>
      <use xlink:href="#DejaVuSans-73" transform="translate(124.755859 0)"/>
      <use xlink:href="#DejaVuSans-69" transform="translate(176.855469 0)"/>
      <use xlink:href="#DejaVuSans-63" transform="translate(204.638672 0)"/>
      <use xlink:href="#DejaVuSans-5f" transform="translate(259.619141 0)"/>
      <use xlink:href="#DejaVuSans-6d" transform="translate(309.619141 0)"/>
      <use xlink:href="#DejaVuSans-74" transform="translate(407.03125 0)"/>
     </g>
    </g>
    <g id="patch_46">
     <path d="M 553.470312 619.281438 
L 573.470312 619.281438 
L 573.470312 612.281438 
L 553.470312 612.281438 
z
" style="fill: #ff7f0e"/>
    </g>
    <g id="text_60">
     <!-- rotating_mt -->
     <g transform="translate(581.470312 619.281438) scale(0.1 -0.1)">
      <use xlink:href="#DejaVuSans-72"/>
      <use xlink:href="#DejaVuSans-6f" transform="translate(38.863281 0)"/>
      <use xlink:href="#DejaVuSans-74" transform="translate(100.044922 0)"/>
      <use xlink:href="#DejaVuSans-61" transform="translate(139.253906 0)"/>
      <use xlink:href="#DejaVuSans-74" transform="translate(200.533203 0)"/>
      <use xlink:href="#DejaVuSans-69" transform="translate(239.742188 0)"/>
      <use xlink:href="#DejaVuSans-6e" transform="translate(267.525391 0)"/>
      <use xlink:href="#DejaVuSans-67" transform="translate(330.904297 0)"/>
      <use xlink:href="#DejaVuSans-5f" transform="translate(394.380859 0)"/>
      <use xlink:href="#DejaVuSans-6d" transform="translate(444.380859 0)"/>
      <use xlink:href="#DejaVuSans-74" transform="translate(541.792969 0)"/>
     </g>
    </g>
    <g id="patch_47">
     <path d="M 553.470312 634.237688 
L 573.470312 634.237688 
L 573.470312 627.237688 
L 553.470312 627.237688 
z
" style="fill: #2ca02c"/>
    </g>
    <g id="text_61">
     <!-- daily_mt -->
     <g transform="translate(581.470312 634.237688) scale(0.1 -0.1)">
      <use xlink:href="#DejaVuSans-64"/>
      <use xlink:href="#DejaVuSans-61" transform="translate(63.476562 0)"/>
      <use xlink:href="#DejaVuSans-69" transform="translate(124.755859 0)"/>
      <use xlink:href="#DejaVuSans-6c" transform="translate(152.539062 0)"/>
      <use xlink:href="#DejaVuSans-79" transform="translate(180.322266 0)"/>
      <use xlink:href="#DejaVuSans-5f" transform="translate(239.501953 0)"/>
      <use xlink:href="#DejaVuSans-6d" transform="translate(289.501953 0)"/>
      <use xlink:href="#DejaVuSans-74" transform="translate(386.914062 0)"/>
     </g>
    </g>
   </g>
  </g>
 </g>
 <defs>
  <clipPath id="pf1de4d48a9">
   <rect x="90.56875" y="35.7555" width="558" height="254.1"/>
  </clipPath>
  <clipPath id="pb6887ff10c">
   <rect x="90.56875" y="391.4955" width="558" height="254.1"/>
  </clipPath>
 </defs>
</svg>
